<svg id="Layer_1" data-name="Layer 1" xmlns="http://www.w3.org/2000/svg" viewBox="0 0 255.45 44.48"><path d="M246.61,25.21c-.2,1.36-.39,2.73-.58,4.09-1.12,7.82-9,10.23-14.66,8.71-4.94-1.33-7.12-5.36-7.41-10a50.57,50.57,0,0,1,.87-14.36A8.24,8.24,0,0,1,238.1,9.26a7.23,7.23,0,0,0,1.19.79,12.62,12.62,0,0,1,7.18,12.47,6,6,0,0,0,.14,1Zm-3.26-2.65c.36-4.74-1.81-8-5.86-10.21-.74-.4-1.45-.84-2.18-1.25-3.55-2-6.81-.42-7.44,3.58a54.8,54.8,0,0,0-.67,13.71c.42,4.28,2.4,6.7,6.53,7.27,4.41.6,8.49-2.14,9-6.23C243.05,27.15,243.16,24.85,243.35,22.56Z"/><path d="M85.93,29.65a10.75,10.75,0,0,1-12.2,8.56L72.43,38c-5.85-.91-8.12-5.47-8.48-10.17a58.17,58.17,0,0,1,.69-12.91,14.47,14.47,0,0,1,1-3.77,5.82,5.82,0,0,1,5.07-3.64A32.58,32.58,0,0,1,75,7.59,2.77,2.77,0,0,1,76.32,8c2.87,2,6.12,3.42,8.18,6.44a10.63,10.63,0,0,1,1.89,5.43c.07,1.19.13,2.38.19,3.57A52.37,52.37,0,0,1,85.93,29.65ZM66.87,24A16.34,16.34,0,0,0,67,28.23a7.52,7.52,0,0,0,4.11,6.42C74,36,78.56,36,81.26,32.68A9.39,9.39,0,0,0,83,28.19a35.55,35.55,0,0,0,.3-8.74c-.27-4.24-6.85-9-10.61-9.19-2.56-.14-4,.78-4.42,3.27C67.69,17,67.31,20.51,66.87,24Z"/><path d="M37.84,24.22A39.15,39.15,0,0,1,39,12.76c.94-3.6,3.2-5.18,7-5.28a10.4,10.4,0,0,1,7,2.16,24.53,24.53,0,0,1,5.86,5.54,7.81,7.81,0,0,1,1.36,3.1,36.19,36.19,0,0,1-.16,11c-1.38,8-9.57,10.1-14.83,8.43A10.62,10.62,0,0,1,37.83,27.2C37.88,26.21,37.84,25.22,37.84,24.22ZM48.79,35.4c4,.1,7.06-2.15,7.8-5.79a32.06,32.06,0,0,0,.6-9.07,8.69,8.69,0,0,0-3.39-6.68,25.54,25.54,0,0,0-5.27-3.23c-3.06-1.27-6.09-.13-6.73,3.7a73.83,73.83,0,0,0-.74,13.29C41.12,32.43,44,35.29,48.79,35.4Z"/><path d="M121.69,25.16c.15-1.46-.16-9.38-.36-14.07-.09-2.17.46-3.05,2.66-3a15.48,15.48,0,0,1,5.2,1.08,26.89,26.89,0,0,1,4.93,2.88,28.74,28.74,0,0,1,3.93,3.09A11.92,11.92,0,0,1,142,23.08a35.6,35.6,0,0,1-.28,5.35,6.69,6.69,0,0,1-2.87,4.77,16.85,16.85,0,0,1-9.05,3.4c-2,.18-4.07.24-6.1.28-1.45,0-2-.51-2-2C121.68,31.68,121.65,25.16,121.69,25.16Zm3.12,8.92c1.57-.1,3-.16,4.49-.29a13.84,13.84,0,0,0,7.23-2.56,4.15,4.15,0,0,0,2-3.71,6,6,0,0,1,.11-.94c.28-2.65.3-5.25-1.43-7.52A25.34,25.34,0,0,0,128.47,12a25.31,25.31,0,0,0-3.66-1.25Z"/><path d="M164.61,21.23c.22,4.06-.83,7.91-1.73,11.77-.58,2.51-2.45,3.83-4.79,4.54a13.3,13.3,0,0,1-6.86.17,7.86,7.86,0,0,1-5.06-3.53,21,21,0,0,1-2.84-16.67c1.15-4.7,4.81-7.3,9.23-8.86a2.79,2.79,0,0,1,1.54-.09c4.45,1.22,8.26,3.31,9.8,8A26.57,26.57,0,0,1,164.61,21.23Zm-3.33,1c0-.79,0-1.35,0-1.9a8,8,0,0,0-4.62-7.72c-2.81-1.53-4.25-1.42-6.75.62A9.52,9.52,0,0,0,146,20.88c0,4.17.46,8.15,2.78,11.73A4.5,4.5,0,0,0,152.2,35a25.36,25.36,0,0,0,4.18,0c1.66-.16,3.06-.93,3.43-2.67C160.52,28.9,161.52,25.52,161.28,22.21Z"/><path d="M195.25,21.27c.17-2.5.23-5,.56-7.48A5.3,5.3,0,0,1,197.17,11a11.92,11.92,0,0,1,7.91-3.69c4-.27,6.12,2.21,8.25,4.84a1.74,1.74,0,0,1,.41,1.2,2.17,2.17,0,0,1-.75,1.43c-.33.18-1.06-.07-1.46-.35A6.66,6.66,0,0,1,210.4,13c-2.73-3.55-7.14-3.91-10.27-.73A4.73,4.73,0,0,0,198.74,15c-.25,4.24-.39,8.49-.32,12.73a10.64,10.64,0,0,0,1.28,4.16,4.88,4.88,0,0,0,5.05,2.9c1.75-.1,3.52-.06,5.26-.25s3.2-3.42,2.44-4.82c-.11-.21-.49-.34-.77-.41-.54-.13-1.11-.14-1.64-.29-.75-.2-1.67-.31-1.7-1.36,0-.77,1-1.43,2-1.45l4.79,0c1.4,0,2.8-.06,4.2-.05.88,0,1.74.19,1.81,1.3s-.76,1.42-1.62,1.53-1.85,0-2.75.13a1.3,1.3,0,0,0-.89.75c-.32,1.1-.52,2.24-.73,3.37a4.54,4.54,0,0,1-4.08,4,27,27,0,0,1-9.28,0,6,6,0,0,1-3.8-2.3,12.66,12.66,0,0,1-2.92-8.13C195.13,24.93,195.2,21.27,195.25,21.27Z"/><path d="M171.35,28.91a10.45,10.45,0,0,0,1.49,3.58,4.5,4.5,0,0,0,4.22,2.25c1.87,0,3.75-.08,5.62-.14a2.11,2.11,0,0,0,2.1-1.78c.08-.31.17-.61.23-.92.47-2.34.46-2.34-1.77-2.81-.94-.19-2-.31-2.06-1.56-.05-.88.87-1.35,2.41-1.36,2.6,0,5.2-.06,7.79-.07a3,3,0,0,1,1.42.1c.44.25,1,.77,1,1.2a1.64,1.64,0,0,1-.87,1.31,9,9,0,0,1-2.84.24c-1-.05-1.53.14-1.62,1.28a22.06,22.06,0,0,1-.66,3.39,4.22,4.22,0,0,1-3.39,3.45,25.27,25.27,0,0,1-9.88.12,6.14,6.14,0,0,1-3.79-2.31,12.69,12.69,0,0,1-2.93-8.73c.19-4,.35-8,.65-12a4.76,4.76,0,0,1,1-2.61c3.21-3.74,7.64-5.57,12.62-3.46a9.28,9.28,0,0,1,4,3.79,1.48,1.48,0,0,1-.19,1.44,2,2,0,0,1-1.59.22c-.44-.13-.78-.65-1.11-1a6.94,6.94,0,0,0-9.91-.61,6,6,0,0,0-1.94,4.33c-.13,1.94-.21,3.89-.31,5.83A54.31,54.31,0,0,0,171.35,28.91Z"/><path d="M23.81,8.51A17.8,17.8,0,0,1,33,11a6.88,6.88,0,0,1,1.5,1.2c.62.62,1.17,1.33.42,2.23-.57.69-1.56.59-2.48-.05a19.08,19.08,0,0,0-3-1.77,14,14,0,0,0-6.79-1.13,7.94,7.94,0,0,0-7,4.64,16.69,16.69,0,0,0-1.32,10.74,9.14,9.14,0,0,0,7.65,7,10.69,10.69,0,0,0,9.48-3.33c1.26-1.23,2.14-1.43,2.85-.65s.5,1.52-.76,2.8c-3.26,3.32-7.07,4.87-11.73,4a13.77,13.77,0,0,1-6.1-2.3A11.31,11.31,0,0,1,11,24.94a38.08,38.08,0,0,1,.55-6.57C12.33,13.77,16.35,8.06,23.81,8.51Z"/><path d="M94.57,34.1h9.78a8.55,8.55,0,0,1,1.43,0c.77.14,1.36.53,1.32,1.47s-.62,1.26-1.45,1.26l-9.1,0c-.84,0-1.68,0-2.52-.05-1.74-.07-2.29-.6-2.33-2.4-.17-7-.29-14-.46-21.08,0-1.27-.2-2.55-.2-3.83s.53-1.92,1.52-1.93,1.53.71,1.56,1.75c.15,5.74.32,11.48.44,17.22C94.61,29,94.57,31.47,94.57,34.1Z"/></svg>