<?xml version="1.0" encoding="utf-8"?>
<!-- Generator: Adobe Illustrator 26.0.1, SVG Export Plug-In . SVG Version: 6.00 Build 0)  -->
<svg version="1.1" id="Layer_1" xmlns="http://www.w3.org/2000/svg" xmlns:xlink="http://www.w3.org/1999/xlink" x="0px" y="0px"
	 viewBox="0 0 242.08 275.4" style="enable-background:new 0 0 242.08 275.4;" xml:space="preserve">
<g>
	<path d="M89,267.95c2.2,0,4.32,0,6.45,0c1.18,0,2.36-0.02,3.54,0.01c0.44,0.01,0.97-0.02,1.3,0.21c0.41,0.29,0.91,0.82,0.89,1.24
		c-0.01,0.41-0.55,0.91-0.98,1.17c-0.34,0.21-0.87,0.16-1.32,0.16c-3.2,0.01-6.4,0.01-9.61,0c-0.39,0-0.79-0.03-1.17-0.1
		c-1.91-0.34-2.37-0.88-2.4-2.8c-0.1-6.17-0.19-12.35-0.31-18.52c-0.03-1.51-0.2-3.01-0.3-4.47c-2.18-0.58-9.76-0.81-11.89-0.36
		c0.7,0.44,1.31,0.79,1.88,1.19c1.72,1.22,3.08,2.8,4.13,4.6c0.55,0.94,0.91,2.07,1.04,3.15c0.47,3.92,0.51,7.88-0.41,11.73
		c-0.72,3-2.46,5.33-5.37,6.73c-3.82,1.85-7.58,1.58-11.36-0.02c-1.22-0.52-2.15-1.39-2.87-2.51c-1.52-2.36-2.45-4.86-2.36-7.75
		c0.13-3.81-0.11-7.63,0.57-11.43c0.38-2.12,0.92-4.15,2.1-5.97c-1.17-0.37-11.54-0.47-14.14-0.11c0.62,0.41,1.05,0.71,1.49,0.98
		c2.48,1.48,4.43,3.54,5.55,6.15c0.65,1.49,0.71,3.27,0.83,4.94c0.23,2.98,0.04,5.97-0.64,8.87c-0.68,2.89-2.27,5.21-4.99,6.64
		c-4.04,2.13-8.1,1.96-12.09-0.03c-0.95-0.47-1.81-1.34-2.45-2.22c-1.65-2.27-2.58-4.81-2.4-7.71c0.11-1.85-0.08-3.71,0.04-5.56
		c0.17-2.57,0.38-5.15,0.82-7.69c0.25-1.46,1-2.83,1.52-4.24c-0.91-0.3-7.82-0.45-10.52-0.17c1.16,0.55,2.18,0.95,3.11,1.5
		c0.67,0.38,1.3,0.88,1.82,1.45c0.72,0.8,0.71,1.39,0.21,1.95c-0.54,0.6-1.54,0.66-2.3,0.09c-0.45-0.33-0.81-0.79-1.29-1.06
		c-3.48-1.93-7.22-2.56-11.06-1.57c-2.62,0.68-4.17,2.81-5.18,5.2c-1.23,2.92-1.35,6.07-0.9,9.13c0.46,3.16,3.32,6.6,7.66,7.24
		c3.86,0.57,6.89-0.64,9.6-3.19c0.29-0.27,0.54-0.59,0.85-0.81c0.7-0.51,1.44-0.47,2,0.05c0.55,0.5,0.67,1.29,0.04,1.96
		c-1.04,1.1-2.07,2.33-3.37,3.01c-2.22,1.16-4.56,2.3-7.2,1.95c-2.05-0.27-4.25-0.37-6.06-1.23c-3.74-1.78-6.2-4.88-6.73-9.08
		c-0.36-2.89-0.17-5.83,0.7-8.68c1.11-3.64,3.34-6.29,6.77-7.94c0.29-0.14,0.57-0.28,0.84-0.57c-2.22-0.1-4.41-0.3-6.62,0
		c-0.71,0.09-1.47,0.13-2.15-0.04c-1.52-0.37-2.12-1.21-2.12-2.79c-0.01-3.99,0.04-7.98,0.01-11.97
		c-0.06-10.17-0.22-20.34-0.18-30.51c0.02-4.43,0.41-8.86,0.65-13.28c0.16-2.97,0.36-5.94,0.51-8.91c0.14-2.69,0.1-5.39,0.37-8.07
		c0.55-5.44,0.33-10.87,0.32-16.32c-0.04-25.35-0.01-50.69-0.03-76.04c0-5.06-0.09-10.11-0.19-15.17c-0.03-1.62-0.27-3.24-0.38-4.87
		c-0.16-2.41-0.33-4.81-0.43-7.22c-0.19-4.71-0.4-9.42-0.49-14.14c-0.08-4.27-0.01-8.54-0.01-12.81c0-2.3-0.06-4.61-0.03-6.91
		C2.39,11.04,2.47,7.67,2.55,4.3c0.04-1.5,0.29-1.78,1.81-1.74c3.25,0.08,6.5,0.24,9.75,0.36c0.73,0.03,1.46,0.07,2.19,0.07
		c12.42,0,24.84,0.24,37.25-0.07c11.4-0.29,22.8-0.46,34.19-0.24c31.96,0.63,63.92,0.18,95.88,0.28
		c13.98,0.04,27.97-0.27,41.95-0.43c3.48-0.04,6.96-0.14,10.44-0.16c3.17-0.02,3.37,0.34,3.52,3.42
		c0.52,10.56,0.21,21.12,0.33,31.68c0.02,1.68,0.25,3.35,0.37,5.03c0.11,1.57,0.27,3.13,0.27,4.7c0.03,7.14-0.05,14.28,0.03,21.41
		c0.07,5.61,0.36,11.22,0.49,16.84c0.07,2.92,0.01,5.84-0.03,8.76c-0.07,4.16-0.19,8.31-0.28,12.47c-0.06,3.03-0.24,6.07-0.14,9.09
		c0.18,5,0.14,9.99-0.3,14.97c-0.01,0.17-0.01,0.34-0.01,0.51c-0.04,12.7-0.09,25.4-0.11,38.1c0,1.46,0.19,2.91,0.28,4.37
		c0.03,0.45,0.03,0.9,0.02,1.35c-0.06,6.8-0.09,13.59-0.22,20.39c-0.05,2.86-0.44,5.71-0.49,8.57c-0.08,4.82-0.07,9.65,0.01,14.47
		c0.05,3.03,0.34,6.06,0.39,9.08c0.07,4.55,0.02,9.1,0.02,13.66c0,2.47-0.58,3.02-3.12,3.03c-1.11,0-2.22,0-3.76,0
		c0.6,0.48,0.84,0.75,1.14,0.91c2.51,1.36,4.39,3.41,5.59,5.9c0.7,1.45,0.84,3.24,0.96,4.9c0.22,3.09,0.15,6.2-0.58,9.22
		c-0.74,3.06-2.45,5.43-5.41,6.9c-3.9,1.94-7.67,1.65-11.49-0.08c-1.16-0.52-2.04-1.35-2.73-2.42c-1.52-2.36-2.5-4.85-2.34-7.74
		c0.18-3.25,0.2-6.5,0.38-9.75c0.14-2.65,0.74-5.21,2.14-7.53c-1.3-0.35-12.63-0.45-15.11-0.13c0.39,0.41,0.75,0.72,1.01,1.1
		c0.48,0.68,0.98,1.37,1.31,2.13c0.36,0.84,0.06,1.56-0.59,1.89c-0.65,0.34-1.3,0.12-1.85-0.66c-0.1-0.14-0.16-0.3-0.25-0.44
		c-1.71-2.68-4.18-3.84-7.3-3.51c-2.65,0.28-5.01,3.02-5.18,5.99c-0.19,3.3-0.32,6.61-0.35,9.92c-0.02,2.2,0.43,4.33,1.63,6.26
		c1.04,1.66,2.4,2.61,4.41,2.56c1.46-0.04,2.92,0.03,4.38-0.02c0.72-0.02,1.46-0.14,2.15-0.35c0.39-0.12,0.88-0.43,1.01-0.77
		c0.52-1.34,1.06-2.71,0.7-4.28c-0.75-0.1-1.47-0.16-2.17-0.31c-0.49-0.1-1-0.24-1.4-0.51c-0.81-0.54-0.75-1.63,0.1-2.07
		c0.43-0.22,0.97-0.31,1.46-0.32c3.03-0.05,6.06-0.07,9.09-0.08c0.97-0.01,1.63,0.5,1.7,1.27c0.06,0.72-0.39,1.3-1.3,1.51
		c-0.48,0.11-1,0.11-1.5,0.12c-0.83,0.02-1.66,0-2.42,0c-0.33,1.68-0.6,3.21-0.94,4.72c-0.45,1.95-1.7,3.13-3.66,3.5
		c-3.18,0.61-6.39,0.61-9.55,0.08c-2.93-0.5-4.47-2.77-5.68-5.28c-0.78-1.6-1.13-3.33-1.1-5.06c0.09-4.2,0.29-8.41,0.53-12.6
		c0.1-1.68,0.85-3.12,2.22-4.18c0.16-0.13,0.28-0.31,0.57-0.64c-4.71,0-9.2,0-13.89,0c0.46,0.62,0.83,1.09,1.17,1.59
		c0.66,0.98,0.67,1.75,0.04,2.26c-0.67,0.53-1.65,0.39-2.29-0.63c-1.72-2.76-4.41-2.85-7.14-2.63c-2.16,0.17-4.5,2.56-4.91,4.71
		c-0.07,0.39-0.18,0.77-0.2,1.16c-0.14,3.36-0.33,6.72-0.35,10.09c-0.01,2.2,0.42,4.33,1.66,6.25c1.03,1.59,2.34,2.53,4.27,2.49
		c1.46-0.02,2.92,0.01,4.38-0.01c2.84-0.03,3.39-0.48,3.9-3.29c0.12-0.65,0.09-1.32,0.14-2.1c-0.6-0.08-1.09-0.11-1.56-0.21
		c-0.65-0.14-1.36-0.23-1.92-0.55c-0.36-0.2-0.7-0.81-0.67-1.2c0.03-0.39,0.48-0.85,0.87-1.08c0.35-0.21,0.86-0.2,1.31-0.21
		c2.98-0.04,5.95-0.06,8.93-0.08c1.02-0.01,1.63,0.44,1.7,1.24c0.07,0.83-0.38,1.38-1.4,1.58c-0.49,0.1-1.01,0.08-1.51,0.09
		c-0.78,0.01-1.55,0-2.27,0c-0.31,1.62-0.57,3.1-0.89,4.56c-0.43,2.02-1.67,3.27-3.7,3.67c-3.17,0.61-6.39,0.61-9.55,0.08
		c-2.93-0.5-4.47-2.77-5.69-5.28c-0.86-1.76-1.17-3.67-1.14-5.57c0.08-4.03,0.32-8.06,0.58-12.09c0.11-1.68,0.68-2.62,2.25-4.51
		c-4.13,0-8.15,0-12.29,0c1.33,1.18,2.62,2.15,3.7,3.32c1.49,1.61,2.16,3.65,2.34,5.82c0.37,4.64-0.4,9.19-1.42,13.68
		c-0.61,2.69-2.6,4.32-5.19,5.02c-2,0.54-4.05,0.58-6.16,0.2c-3.22-0.59-5.17-2.55-6.48-5.31c-0.99-2.07-1.92-4.2-2.19-6.51
		c-0.2-1.72-0.08-3.47-0.19-5.21c-0.14-2.28,0.45-4.36,1.68-6.23c0.66-1.01,1.56-1.89,2.42-2.76c0.63-0.63,1.37-1.15,2.04-1.7
		c-0.03-0.13-0.04-0.19-0.06-0.24c-0.02-0.04-0.06-0.11-0.09-0.11c-5.61-0.03-11.23-0.06-16.84-0.09c-0.2,0-0.39,0.08-0.89,0.18
		c1.2,0.79,2.2,1.38,3.11,2.08c1.51,1.16,2.98,2.37,4.43,3.6c0.33,0.28,0.59,0.67,0.81,1.06c0.65,1.18,1.3,2.35,1.89,3.56
		c0.93,1.92,0.51,3.97,0.5,5.98c0,0.39-0.14,0.78-0.13,1.17c0.08,3.6-2.12,5.6-4.94,7.22c-2.65,1.52-5.54,2.03-8.53,2.21
		c-1.45,0.09-2.91,0.23-4.37,0.22c-1.8-0.01-2.28-0.53-2.28-2.34c-0.01-6.07,0.03-12.14-0.02-18.21c-0.02-2.17-0.25-4.35-0.39-6.62
		c-9.06,0-18.01,0-27.11,0c0.07,1.17,0.17,2.27,0.18,3.36c0.02,4.05-0.05,8.09,0.03,12.14C88.57,262.68,88.82,265.18,89,267.95z
		 M220.17,6.45c-0.12,0.08-0.24,0.17-0.37,0.25c0.15,0.58,0.22,1.18,0.45,1.72c0.49,1.13,1.08,2.22,1.59,3.34
		c1.07,2.35,2.19,4.75,2.31,7.34c0.25,5.28,0.2,10.55-1.22,15.72c-0.98,3.57-1.88,7.15-3.66,10.44c-1.58,2.91-3.48,5.48-6.46,7.12
		c-3.18,1.75-6.62,2.42-10.18,2.56c-2.41,0.09-4.83-0.07-7.25,0.04c-3.73,0.17-6.91-1.18-9.88-3.25c-0.41-0.29-0.79-0.68-1.25-0.85
		c-2.62-0.98-5.22-2.09-7.91-2.8c-2.81-0.74-5.7-1.21-8.59-1.56c-2.79-0.34-5.61-0.14-8.33,0.63c-4.52,1.28-8.99,2.78-13.71,3.26
		c-0.22,0.02-0.44,0.09-0.65,0.17c-2.3,0.86-4.81,1.16-6.93,2.54c-0.23,0.15-0.52,0.22-0.79,0.28c-2.25,0.47-4.48,1.08-6.75,1.38
		c-7.1,0.93-13.95,2.82-20.68,5.19c-4.49,1.58-8.96,3.21-13.59,4.36c-2.66,0.66-5.31,1.43-7.9,2.35c-2.32,0.82-4.52,1.99-6.83,2.85
		c-2.41,0.9-4.84,1.98-7.35,2.34c-2.86,0.41-5.22,1.55-7.5,3.14c-1.05,0.73-2.1,1.54-3.27,2.01c-1.55,0.61-3.23,0.87-4.84,1.36
		c-1.39,0.42-2.57,0.33-3.77-0.65c-1.51-1.23-3.29-1.84-5.32-1.71c-1.4,0.09-2.68,0.42-3.78,1.23c-2.76,2.02-5.5,4.08-8.2,6.18
		c-1.32,1.03-2.55,2.2-3.8,3.33c-1.99,1.8-4.35,3.19-6,5.38c-1.21,1.62-2.43,3.23-3.7,4.8c-1.04,1.28-1.73,2.73-2.35,4.25
		c-2.33,5.71-4.67,11.43-7.15,17.08c-0.96,2.19-1.72,4.35-1.74,6.77c-0.02,2.49,0.07,4.85,1.28,7.18c1.35,2.61,3.34,4.35,5.93,5.44
		c2.1,0.89,4.1,0.8,5.88-0.98c1.63-1.63,3.32-3.18,4.42-5.23c0.34-0.63,0.61-1.31,0.8-1.99c0.7-2.59,1.3-5.22,2.04-7.8
		c0.5-1.78,1.13-3.52,1.76-5.25c0.31-0.84,0-1.36-0.62-1.89c-1.32-1.14-2.63-2.29-3.88-3.5c-2.32-2.24-4.14-4.87-5.6-7.74
		c-0.67-1.31-0.43-2.13,0.88-2.74c0.58-0.27,1.3-0.41,1.93-0.35c2.23,0.21,4.45,0.55,6.68,0.8c0.69,0.08,1.4,0.01,2.09,0.01
		c0.01-3.11,0.17-4.32,1.08-5.66c2.03-2.99,4.54-5.56,7.19-8c0.46-0.42,1.01-0.7,1.75-0.15c-1.05,2.37-2.19,4.65-4.02,6.53
		c-0.86,0.88-1.62,1.86-2.41,2.81c-0.74,0.88-0.9,1.92-0.72,3.02c0.11,0.65,0.27,1.3,0.41,1.94c0.21,0.07,0.37,0.16,0.53,0.18
		c2.4,0.26,4.8,0.51,7.19,0.78c1.67,0.19,3.35,0.35,5.01,0.64c1.65,0.29,2.89,1.54,1.74,3.41c-0.16,0.26-0.24,0.57-0.45,1.06
		c1.33,0.1,2.48,0.19,3.69,0.28c-0.63-2.62,0.02-3.66,2.22-3.7c9.27-0.16,18.53-0.3,27.8-0.44c0.5-0.01,1.02-0.02,1.51,0.09
		c1.86,0.4,2.59,1.88,1.67,3.54c-0.34,0.61-0.89,1.16-1.45,1.59c-2.44,1.9-4.92,3.74-7.38,5.61c-4.14,3.15-8.77,4.64-13.99,4.23
		c-2.04-0.16-3.88-0.72-5.13-2.46c-1.05-1.45-2.12-2.91-2.97-4.47c-0.58-1.07-1.29-1.34-2.41-1.32c-1.4,0.03-2.81-0.06-4.19-0.26
		c-1.02-0.15-1.64,0.15-2.3,0.93c-1.08,1.27-2.24,2.51-3.52,3.58c-1.72,1.44-3.73,2.25-6.04,2.15c-1.16-0.05-2.32-0.01-3.46-0.01
		c-0.24,0.81-0.43,1.57-0.67,2.32c-1.03,3.14-2.2,6.24-3.08,9.43c-1.16,4.21-0.75,8.23,2.02,11.82c1,1.3,2.22,2.34,3.89,2.38
		c2.01,0.05,4.04-0.08,6.04-0.29c1.52-0.15,2.4-1.21,2.4-2.74c0-1.23-0.25-2.46-0.28-3.69c-0.03-0.95-0.43-1.54-1.26-1.98
		c-1.64-0.85-3.24-1.78-4.86-2.68c-1.41-0.79-2.48-1.91-3.15-3.4c-0.69-1.53-0.34-3.25,0.88-3.85c1.57-0.77,3.19-1.36,4.99-1.29
		c4.71,0.16,9.43,0.24,14.13,0.45c1.44,0.07,2.87,0.41,4.29,0.72c0.68,0.15,1.25,0.62,1.35,1.36c0.26,1.96,0.17,3.84-1.62,5.17
		c-1.76,1.32-3.6,2.49-5.73,3.11c-1.97,0.57-3.96,1.11-5.96,1.66c-0.44,4.24,2.53,7.17,6.25,7.24c0.62,0.01,1.24,0.03,1.85,0.13
		c3.33,0.51,6.02-0.56,8.29-3.06c0.84-0.92,2.07-1.5,3.16-2.16c0.21-0.13,0.72-0.03,0.9,0.15c0.16,0.17,0.1,0.6,0.04,0.9
		c-0.07,0.32-0.2,0.65-0.38,0.93c-1.26,1.88-2.77,3.53-4.59,4.87c-0.41,0.3-1.05,0.35-1.6,0.42c-2.86,0.38-5.7,0.12-8.56-0.19
		c-2.13-0.23-3.96-0.99-5.66-2.34c-0.73,1.78-2.15,2.62-3.91,2.85c-1.5,0.2-3.02,0.28-4.53,0.31c-1.61,0.03-3.23-0.08-4.9-0.13
		c-0.06,0.08-0.18,0.21-0.23,0.36c-1.11,3.23-2.25,6.45-3.31,9.7c-0.98,3.03-1.8,6.12-2.84,9.13c-0.62,1.79-1.64,3.45-2.29,5.23
		c-1.18,3.28-3.35,5.96-5.26,8.78c-1.56,2.32-3.46,4.4-5.11,6.67c-2.71,3.73-5.72,7.2-9,10.43c-0.91,0.9-1.67,1.91-1.92,3.11
		c-0.72,3.5-0.38,4.61,2.54,5.81c2,0.82,4.1,1.05,6.26,1.07c1.24,0.01,2.37-0.27,3.3-1.03c1.34-1.1,2.66-2.23,3.87-3.47
		c1.1-1.12,2.04-2.39,3.03-3.61c3.17-3.91,6.85-7.44,9.32-11.9c1.22-2.2,2.54-4.38,3.52-6.69c1.86-4.38,3.52-8.85,5.24-13.28
		c0.69-1.78,1.4-3.55,2-5.36c1.27-3.82,2.86-7.34,6.21-9.94c2.31-1.8,4.7-3.19,7.54-3.81c1.2-0.26,2.43-0.44,3.6-0.81
		c2.67-0.83,5.44-0.7,8.16-0.79c3.72-0.13,7.34,0.53,10.82,1.99c3.47,1.46,6.91,2.99,9.99,5.17c1.64,1.16,2.92,2.77,3.18,4.79
		c0.39,2.98,0.09,5.95-1.06,8.77c-0.17,0.42-0.4,0.82-0.5,1.25c-0.8,3.46-1.99,6.79-3.58,9.96c-1.59,3.17-3.53,6.02-7.26,6.99
		c-0.75,0.2-1.52,0.33-2.29,0.5c-0.98,0.22-2.02,0.3-2.93,0.69c-3.25,1.38-4.32,6.01-2.03,8.68c1.15,1.34,2.77,2,4.47,2.05
		c3.57,0.11,7.04-0.42,10.28-2.07c1.3-0.66,2.61-1.32,3.97-1.82c1.94-0.71,3.32-2.01,4.44-3.7c1.12-1.68,2.18-3.43,3.5-4.93
		c3.57-4.05,6.01-8.78,8.45-13.53c0.38-0.74,0.65-1.55,0.97-2.33c1.13-2.81,2.21-5.64,3.39-8.43c1.06-2.53,2.27-4.99,3.34-7.52
		c1.72-4.05,2.67-8.32,3.55-12.61c0.71-3.49,1.85-6.84,3.47-9.98c1.61-3.12,4.11-5.62,6.87-7.78c2.73-2.14,5.63-4.07,8.43-6.13
		c3.7-2.72,6.73-6.04,9.27-9.89c1.91-2.89,3.98-5.73,6.94-7.72c2.46-1.66,4.7-1.2,6.33,1.3c0.34,0.52,0.66,1.05,1,1.56
		c2,3.03,3.58,6.34,6.15,8.99c0.89,0.92,1.48,2.12,2.33,3.08c1.73,1.95,3.27,4,4.19,6.46c0.53,1.42,1,2.86,1.42,4.31
		c0.94,3.23,1.89,6.46,2.7,9.72c0.39,1.58,0.6,3.31-0.15,4.8c-1.26,2.5-2.77,4.87-4.19,7.29c-0.51,0.87-1.13,1.67-1.62,2.55
		c-1.17,2.11-2.28,4.25-3.42,6.38c-1.47,2.76-3.18,5.28-6.11,6.73c-2.19,1.08-3.21,3.06-3.7,5.35c-0.42,1.95,0.43,3.59,2.32,4.32
		c3.04,1.17,6.11,1.31,9.15-0.07c0.51-0.23,1.02-0.48,1.56-0.61c3.55-0.84,6.31-3.06,9.13-5.17c0.34-0.26,0.62-0.67,0.79-1.07
		c0.44-1.03,0.84-2.08,1.18-3.14c0.95-2.88,1.61-5.87,2.84-8.62c2.81-6.3,5.88-12.48,8.86-18.7c1.38-2.88,2.9-5.7,4.12-8.64
		c0.97-2.32,1.8-4.74,2.28-7.19c0.43-2.18,0.36-4.47,0.4-6.71c0.06-3.31-0.05-6.63,0.04-9.95c0.06-2.18-0.44-4.25-1.04-6.27
		c-1.02-3.44-2.3-6.8-3.4-10.21c-0.34-1.05-0.55-2.18-0.61-3.28c-0.1-1.79,0.95-3.35,2.66-3.83c2.26-0.63,4.58-1.06,6.86-1.61
		c1.08-0.26,2.22-0.44,3.19-0.94c3.16-1.67,6.31-3.33,8.86-6c2.15-2.25,4.1-4.61,5.81-7.19c0.52-0.79,1.11-1.61,1.35-2.5
		c1.18-4.32,2.89-8.5,3.48-12.99c0.72-5.51,1.82-10.95,1.69-16.57c-0.09-4.16-1.29-7.85-3.61-11.19c-1.76-2.53-3.65-4.98-5.61-7.36
		C223.76,8.71,222.01,7.49,220.17,6.45z M216.97,5.69c-0.5-0.04-0.88-0.09-1.26-0.1c-5-0.04-10-0.14-14.99-0.1
		c-6,0.04-12,0.28-18.01,0.29c-17.41,0.04-34.83,0-52.24,0.02c-9.43,0.01-18.87,0.08-28.3,0.12c-1.01,0-2.02-0.04-3.03-0.1
		c-2.01-0.13-4.02-0.41-6.04-0.42c-4.94-0.01-9.88,0.09-14.82,0.15c-8.03,0.09-16.06,0.21-24.08,0.24
		c-12.08,0.04-24.15,0.02-36.23,0c-1.68,0-3.36-0.18-5.04-0.26C11.19,5.45,9.45,5.3,7.71,5.35C6.03,5.39,5.54,5.97,5.54,7.66
		c0,2.7,0.06,5.39,0.11,8.09c0.06,2.92,0.15,5.83,0.21,8.75c0.12,5.56,0.23,11.12,0.34,16.68c0.01,0.39-0.02,0.79-0.05,1.18
		c-0.28,3.76-0.3,7.51,0.23,11.25c0.14,1,0.27,2.01,0.26,3.01c-0.07,3.87-0.29,7.74-0.28,11.61c0.02,4.21,0.31,8.41,0.35,12.62
		c0.23,25.06-0.37,50.11,0.32,75.17c0.11,4.09-0.11,8.2-0.22,12.3c-0.05,1.91-0.2,3.81-0.33,5.72c-0.24,3.47-0.5,6.94-0.74,10.4
		c-0.1,1.46-0.15,2.91-0.24,4.37c-0.14,2.3-0.29,4.59-0.41,6.89c-0.02,0.32,0.15,0.65,0.28,1.2c0.38-0.63,0.67-0.99,0.83-1.4
		c0.66-1.61,1.72-2.86,3.08-3.93c0.75-0.59,1.46-1.24,2.07-1.97c1.68-2.03,3.31-4.1,4.94-6.17c1.69-2.16,3.42-4.3,5.02-6.53
		c1.47-2.05,3.01-4.1,4.12-6.34c1.8-3.66,3.27-7.48,4.63-11.35c1.6-4.56,2.84-9.21,4.06-13.87c0.36-1.36,0.71-2.77,0.03-4.12
		c-0.95-1.89-2-3.72-3.07-5.69c-2.05,1.45-4.03,2.81-5.96,4.24c-0.77,0.57-1.58,0.75-2.5,0.83c-2.72,0.25-4.87-0.94-6.95-2.48
		c-3.7-2.73-5.51-6.41-5.64-10.95c-0.03-1.01,0.1-2.02,0.18-3.02c0.19-2.42,0.64-4.76,1.65-7c2.48-5.53,5.03-11.03,7.34-16.64
		c1.45-3.53,3.65-6.56,5.69-9.71c0.21-0.33,0.51-0.6,0.79-0.87c3.45-3.29,6.92-6.57,10.77-9.41c2.3-1.7,4.64-3.35,6.9-5.12
		c2.44-1.9,5.03-3.03,8.23-2.71c1.69,0.17,3.19,0.4,4.38,1.73c0.29,0.33,0.89,0.67,1.27,0.59c1.75-0.33,3.54-0.63,5.21-1.25
		c4.62-1.71,9.18-3.6,13.78-5.37c1.67-0.65,3.4-1.13,5.07-1.78c2.35-0.91,4.63-2.03,7.01-2.83c2.97-1,6.02-1.77,9.04-2.63
		c1.94-0.55,3.95-0.93,5.81-1.68c5.31-2.16,10.75-3.93,16.29-5.31c4.5-1.12,9.12-1.8,13.67-2.73c1.53-0.31,3.14-0.55,4.52-1.22
		c2.5-1.22,5.16-1.87,7.81-2.55c3.47-0.89,6.95-1.71,10.29-3.04c0.67-0.27,1.38-0.5,2.09-0.6c5.9-0.84,11.76-0.33,17.53,0.95
		c2.83,0.63,5.58,1.66,8.3,2.67c1.34,0.5,2.6,1.28,3.82,2.05c2.47,1.55,5.02,2.67,8.04,2.49c1.9-0.11,3.82-0.08,5.73-0.01
		c2.67,0.1,5.26-0.35,7.78-1.15c2.4-0.76,4.43-2.08,5.96-4.17c1.97-2.71,3.27-5.7,4.22-8.91c1.55-5.2,2.59-10.46,2.29-15.92
		c-0.01-0.22-0.02-0.45,0-0.67c0.23-2.91-0.84-5.54-2-8.09C218.34,10.84,216.84,8.57,216.97,5.69z M237.25,37.51
		c-0.17-0.01-0.34-0.02-0.51-0.03c-0.31,1.93-0.71,3.85-0.91,5.79c-0.57,5.63-2.45,10.93-4.04,16.31c-0.09,0.32-0.23,0.64-0.4,0.92
		c-2.15,3.58-4.5,6.98-7.66,9.77c-1.01,0.89-1.86,1.98-2.97,2.71c-2.01,1.32-4.13,2.49-6.27,3.62c-0.98,0.52-2.07,0.87-3.15,1.13
		c-1.85,0.44-3.75,0.67-5.6,1.13c-2.79,0.7-3.01,1.24-2.07,4.02c1.18,3.45,2.41,6.88,3.47,10.37c0.52,1.7,0.94,3.5,0.98,5.26
		c0.13,4.77,0.07,9.55,0.01,14.33c-0.02,1.74-0.05,3.52-0.42,5.2c-0.94,4.23-2.57,8.23-4.57,12.08c-0.85,1.64-1.7,3.29-2.52,4.94
		c-0.16,0.33-0.2,0.72-0.35,1.3c1.51,0.15,2.89,0.34,4.27,0.42c1.29,0.08,2.64-0.18,3.86,0.12c3.31,0.82,6.69,0.38,10.02,0.85
		c2.87,0.41,5.82,0.29,8.73,0.48c0.76,0.05,1.55,0.3,2.25,0.62c0.92,0.42,1.43,1.14,1.41,2.26c-0.06,2.75,0.08,5.51-0.05,8.26
		c-0.11,2.24-0.37,4.58-1.67,6.44c-2.1,3-4.62,5.63-8.01,7.28c-1.91,0.93-3.78,1.97-5.65,2.99c-1.87,1.02-3.7,2.11-5.59,3.09
		c-0.87,0.45-1.83,0.73-2.74,1.08c1.26,0.33,2.49,0.54,3.7,0.49c3.22-0.13,6.14,0.59,9.04,2.09c3.05,1.58,4.54,3.95,4.66,7.21
		c0.09,2.69,0.07,5.41-0.24,8.07c-0.26,2.2-0.62,4.46-1.95,6.37c-1.21,1.74-2.88,2.91-4.63,4.06c-3.36,2.2-6.96,2.39-10.65,1.38
		c-2.2-0.6-4.3-1.6-6.41-2.53c-2.64-1.15-4.29-3.2-4.93-6c-0.27-1.19-0.34-2.42-0.51-3.63c-4.88-0.96-9.75-1.76-14.54-2.91
		c-2.04-0.49-3.7-0.31-5.4,0.8c-0.98,0.64-2.03,1.17-3.1,1.66c-1.63,0.75-3.3,1.41-4.94,2.12c-2.72,1.19-5.41,2.45-8.15,3.58
		c-4.19,1.74-8.43,3.36-12.62,5.1c-5.23,2.16-10.44,4.39-15.65,6.59c-1.34,0.57-2.65,1.23-4.02,1.71c-3.01,1.06-6.04,2.04-9.08,3.03
		c-1.75,0.57-3.49,1.27-5.29,1.61c-2.85,0.54-5.76,0.84-8.64,1.23c-1.82,0.25-3.65,0.48-5.52,0.73c-0.17,1.12,0.05,2.14,0.65,3.05
		c1.9,2.87,5.65,5.25,10.05,4.5c1-2.9,2.69-5.39,5.23-7.2c1.73-1.23,3.52-2.3,5.84-2.18c4.42,0.22,8.86,0.26,13.29,0.4
		c1.35,0.04,2.53,0.47,3.31,1.67c1.99,3.03,3.01,6.39,3.27,9.96c0.14,1.9,0.08,3.82,0.01,5.73c-0.09,2.48-0.39,4.88-2.12,6.91
		c-1.73,2.02-3.47,3.98-5.9,5.18c-0.3,0.15-0.59,0.3-0.88,0.45c0.74,0.25,1.41,0.25,2.08,0.25c13.2-0.14,26.39-0.03,39.59-0.24
		c20.44-0.32,40.9-0.08,61.35-0.08c0.51,0,1.01,0.02,1.52-0.01c1.1-0.06,1.29-0.19,1.29-1.29c-0.03-6.46,0.14-12.93-0.2-19.38
		c-0.34-6.41-0.14-12.8,0.06-19.19c0.22-7.12,0.78-14.23,0.71-21.37c-0.11-12.02-0.14-24.04-0.15-36.06
		c-0.01-6.12,0.11-12.24,0.13-18.36c0.01-2.24-0.19-4.49-0.13-6.74c0.14-6.23,0.46-12.46,0.54-18.69c0.1-8.08,0.05-16.17,0.03-24.26
		c-0.02-8.37-0.04-16.75-0.14-25.12C237.62,46.48,237.4,41.99,237.25,37.51z M125.09,158.21c-2.02,0.61-3.93,1.23-5.86,1.76
		c-0.65,0.18-0.9,0.58-1.12,1.12c-0.86,2.13-1.81,4.23-2.57,6.4c-1.76,5.02-4.46,9.54-7.37,13.94c-0.93,1.4-2.24,2.56-3.05,4.01
		c-1.42,2.55-3.5,4.53-5.4,6.64c-1.28,1.43-3.04,2.46-4.68,3.52c-2.41,1.55-5.17,2.14-7.98,2.41c-3.77,0.36-7.47,0.35-10.94-1.71
		c-2.01-1.19-3.42-2.5-3.09-5.03c0.08-0.61-0.08-1.25,0.03-1.85c0.81-4.4,1.98-6.38,6-6.97c0.78-0.11,1.54-0.39,2.31-0.43
		c1.49-0.09,2.65-0.78,3.71-1.75c2.88-2.64,4.15-6.12,5.42-9.96c-1.28,0.64-2.3,1.07-3.25,1.64c-4.41,2.64-9.18,4.4-14.04,5.94
		c-4.49,1.42-9.01,2.73-13.52,4.05c-4.85,1.42-9.48,3.42-14.11,5.42c-0.8,0.35-1.6,0.87-2.19,1.51c-2.13,2.27-3.02,6.36,0.8,9.45
		c3.08,2.48,6.66,4.01,10.46,4.78c4.83,0.98,9.77,1.26,14.72,1.22c7.98-0.06,15.95,0.05,23.93-0.07c3.36-0.05,6.74-0.29,10.05-0.84
		c4.58-0.76,9.13-1.75,13.64-2.88c3.74-0.94,7.41-2.19,11.07-3.4c3.3-1.08,6.56-2.29,9.84-3.45c0.47-0.17,0.96-0.35,1.38-0.6
		c5.16-3.09,10.68-5.44,16.21-7.75c3.4-1.43,6.89-2.63,10.35-3.92c4.04-1.51,8.08-3.03,11.8-5.27c0.43-0.26,0.89-0.47,1.36-0.67
		c4.22-1.78,8.44-3.56,12.57-5.56c3.17-1.54,6.41-2.94,9.51-4.64c1.91-1.05,3.92-1.94,5.84-2.96c0.78-0.42,1.41-1.24,2.22-1.47
		c3.6-1.04,6.56-3.11,9.29-5.55c1.79-1.6,3-3.55,3.71-5.89c0.86-2.82,0.49-5.63,0.47-8.5c-7.96-0.6-15.74-1.19-23.74-1.79
		c-1.98,4.07-4.2,8.17-5.99,12.45c-1.51,3.61-2.54,7.41-3.73,11.15c-0.46,1.43-1.14,2.72-2.22,3.72c-2.19,2.03-4.66,3.71-7.45,4.78
		c-2.3,0.88-4.68,1.54-7.03,2.3c-2.97,0.96-5.88,0.48-8.73-0.49c-2.58-0.88-3.67-2.9-3.51-4.96c0.08-1.01-0.04-2.04,0.13-3.03
		c0.4-2.31,1.17-4.47,3.15-5.94c0.94-0.7,1.96-1.32,2.99-1.88c1.13-0.61,1.98-1.44,2.57-2.57c1.09-2.09,2.15-4.19,3.31-6.24
		c1.07-1.9,2.27-3.73,3.37-5.61c0.78-1.33,1.51-2.7,2.38-4.29c-4.97,0-9.61-0.02-14.26,0.04c-0.37,0-0.81,0.5-1.08,0.87
		c-0.88,1.23-1.63,2.54-2.54,3.75c-2.79,3.73-4.47,8.03-6.29,12.24c-1.45,3.37-3.52,5.92-6.93,7.38c-2.42,1.04-4.8,2.17-7.43,2.61
		c-0.33,0.05-0.66,0.15-0.96,0.29c-2.94,1.41-6.07,1.5-9.23,1.38c-0.44-0.02-0.88-0.15-1.3-0.3c-1.73-0.61-2.23-2.14-2.52-3.7
		C125.31,161.55,125.26,160.03,125.09,158.21z M45.92,208.09c-1.71-1.09-3.26-2.09-4.83-3.07c-0.92-0.57-1.49-1.3-1.52-2.45
		c-0.08-3.37-0.17-6.73-0.3-10.1c-0.13-3.33,1.28-5.78,4.26-7.18c2.32-1.09,4.71-2.09,7.15-2.9c4.52-1.49,9.11-2.77,13.66-4.19
		c8.89-2.79,17.66-5.88,25.72-10.7c1.24-0.74,1.92-1.65,2.14-3c0.16-1,0.26-2.01,0.49-2.99c0.88-3.73-0.61-6.19-3.42-8.04
		c-1.17-0.77-2.32-1.6-3.57-2.23c-3.72-1.89-7.54-3.49-11.83-3.35c-2.02,0.07-4.04,0.11-6.04,0.33c-2.45,0.27-4.89,0.63-7.3,1.13
		c-1.3,0.27-2.59,0.79-3.74,1.44c-3.64,2.07-5.75,5.39-7.15,9.22c-0.87,2.37-1.7,4.75-2.58,7.11c-0.98,2.62-1.98,5.23-3.03,7.82
		c-1.21,2.96-2.3,5.99-3.79,8.79c-1.65,3.1-3.34,6.24-5.88,8.79c-0.59,0.59-1.13,1.24-1.67,1.89c-1.32,1.6-2.77,3.12-3.88,4.86
		c-1.34,2.1-2.91,3.98-4.42,5.93c-1.77,2.28-4.18,3.26-6.81,3.59c-4.49,0.57-8.7-0.35-12.61-3.41c0,0.97-0.03,1.73,0.01,2.5
		c0.05,0.95,0.22,1.89,0.23,2.84c0.03,2.98,0.03,5.95,0.01,8.93c-0.04,6.07-0.08,12.13-0.15,18.2c-0.02,2.05,0.57,2.71,2.67,2.69
		c2.47-0.03,4.93-0.2,7.4-0.19c5.11,0.02,10.22,0.06,15.32,0.19c4.71,0.12,9.42,0.5,14.12,0.54c12.63,0.11,25.26,0.1,37.89,0.58
		c11.33,0.43,22.69,0.09,34.04,0.08c0.33,0,0.66-0.11,1-0.17c-1.33-0.71-2.65-1.15-3.94-1.67c-0.67-0.27-1.39-0.55-1.91-1.02
		c-2.16-1.95-3.56-4.31-3.62-7.32c-0.01-0.65-0.07-1.31-0.11-1.94c-12.17-2.26-24.1-4.84-36.12-6.98c-0.26,1.55-1.06,2.5-2.1,3.18
		c-1.88,1.23-3.84,2.32-5.74,3.5c-1.27,0.79-2.64,0.81-4.06,0.68c-3.64-0.32-6.93-1.78-10.22-3.19c-2.27-0.97-3.82-2.71-4.56-5.11
		c-0.5-1.61-0.65-8.92-0.18-10.54C45.22,210.15,45.58,209.15,45.92,208.09z M161.58,99.81c-2.74,0.29-4.35,1.87-5.7,3.81
		c-0.26,0.37-0.54,0.72-0.8,1.09c-2.58,3.82-5.49,7.38-8.69,10.7c-1.09,1.13-1.71,2.41-1.6,4.08c0.17,2.46,0.28,4.94,0.18,7.4
		c-0.16,4.02-0.09,8.12-2.42,11.71c-0.24,0.37-0.36,0.82-0.51,1.24c-1.59,4.33-4.59,7.52-8.15,10.29c-1.05,0.82-2.11,1.72-2.91,2.77
		c-2.11,2.78-3.41,5.79-2.07,9.4c0.44,1.19,1.28,1.66,2.38,1.8c0.66,0.08,1.36,0.02,2.01-0.13c2.4-0.54,4.83-1,7.15-1.76
		c2.33-0.76,4.59-1.77,6.81-2.82c0.76-0.36,1.53-1.04,1.94-1.77c1.33-2.4,2.5-4.89,3.73-7.35c0.9-1.8,1.68-3.67,2.7-5.4
		c2.14-3.62,4.33-7.22,6.66-10.72c1.58-2.38,2.74-4.86,3.12-7.7c0.5-3.67,1.01-7.33,1.56-10.99c0.57-3.81,0.61-7.47-2.05-10.7
		C163.65,103.21,162.66,101.43,161.58,99.81z M125.61,214.3c-2.79,0-5.58-0.2-8.28,0.95c-1.6,0.68-3.03,1.45-3.99,2.91
		c-3.25,4.92-3.89,10.21-1.96,15.75c0.58,1.66,1.74,2.98,3.55,3.57c2.66,0.87,5.35,1.69,7.96,2.69c1.38,0.53,2.61,0.43,3.9-0.09
		c0.52-0.21,1.04-0.41,1.57-0.59c2.49-0.86,4.65-2.2,6.35-4.24c1.03-1.24,1.89-2.61,1.98-4.19c0.22-4.39-0.02-8.75-1.6-12.94
		c-0.81-2.14-2.97-3.77-5.25-3.81C128.42,214.28,127.01,214.3,125.61,214.3z M225.51,140.02c0,2.32,0.01,4.44,0,6.56
		c-0.01,2.18-0.69,4.2-1.64,6.11c-1.89,3.82-5.13,6.31-8.67,8.45c-1.63,0.98-3.35,1.82-5.05,2.68c-2.5,1.27-5.02,2.49-7.52,3.76
		c-1.1,0.56-2.16,1.18-3.25,1.77c-0.54,0.29-1.09,0.56-1.65,0.83c-2.42,1.17-4.84,2.35-7.26,3.51c-0.4,0.19-0.82,0.36-1.23,0.53
		c-3.26,1.35-6.63,2.47-9.73,4.12c-2.83,1.51-5.73,2.83-8.66,4.09c-1.74,0.75-3.58,1.29-5.37,1.93c-2.68,0.95-5.47,1.59-8.02,2.95
		c-2.07,1.1-4.28,1.93-6.44,2.88c-2.82,1.24-5.72,2.27-8.29,4.07c-1.27,0.89-2.74,1.52-4.18,2.12c-1.5,0.63-3.07,1.06-4.6,1.63
		c-5.42,2-10.87,3.92-16.47,5.31c-4.57,1.14-9.19,2.08-13.82,2.9c-2.97,0.52-6.01,0.88-9.02,0.93c-7.36,0.13-14.72,0.12-22.08,0
		c-3.92-0.06-7.86-0.27-11.75-0.78c-3.99-0.52-7.93-1.46-11.88-2.27c-0.75-0.15-1.48-0.53-2.15-0.92c-1.26-0.72-2.45-1.56-3.71-2.28
		c-0.32-0.18-0.92-0.3-1.16-0.12c-0.55,0.38-0.42,0.98-0.03,1.47c0.14,0.17,0.33,0.3,0.51,0.43c3.92,2.9,8.48,4.21,13.15,5.26
		c4.68,1.05,9.49,0.86,14.23,1.3c4.13,0.38,8.29,0.43,12.44,0.55c8.3,0.23,16.61,0.69,24.89-0.52c2.72-0.4,5.42-0.85,8.02-1.8
		c3.21-1.17,6.45-2.26,9.67-3.4c1.36-0.48,2.75-0.91,4.07-1.5c2.35-1.05,4.63-2.26,6.98-3.3c1.43-0.63,2.96-1.03,4.42-1.6
		c2.92-1.16,5.82-2.36,8.72-3.57c6.83-2.86,13.74-5.54,20.45-8.65c9.2-4.27,18.25-8.88,27.36-13.33c2.97-1.45,5.93-2.92,8.93-4.33
		c1.72-0.81,3.53-1.43,5.22-2.29c2.4-1.21,4.7-2.63,7.09-3.84c3.21-1.62,6.02-3.7,8.19-6.58c0.43-0.57,0.79-1.23,1.01-1.91
		c1.35-4.1,0.67-8.33,0.84-12.62C227.13,140.35,226.34,140.19,225.51,140.02z M222.04,187.53c-0.13-3.65-0.25-6.56-1.28-9.35
		c-0.43-1.17-1.07-2.14-2.24-2.58c-2.46-0.93-4.88-2.02-7.63-1.78c-0.54,0.05-1.11-0.16-1.67-0.2c-1.68-0.13-3.39-0.39-4.98,0.38
		c-3.91,1.89-5.74,5.26-6.22,9.38c-0.25,2.16-0.09,4.37-0.08,6.56c0.01,1.77,0.83,3.06,2.32,4.03c2.53,1.64,5.38,2.47,8.16,3.51
		c0.41,0.15,0.89,0.29,1.31,0.25c2.48-0.26,4.94-0.26,7.15-1.94C219.95,193.47,222.46,191.03,222.04,187.53z M141.11,119.58
		c-0.4,0.09-0.53,0.09-0.6,0.15c-3.06,2.54-6.49,4.65-9.19,7.62c-1.16,1.27-2.42,2.61-3.06,4.16c-1.13,2.73-1.87,5.62-2.68,8.47
		c-1.06,3.72-1.97,7.48-3.06,11.19c-0.5,1.71-1.26,3.34-1.96,5.17c0.73-0.12,1.32-0.25,1.91-0.3c2.3-0.17,4.04-1.2,5.14-3.25
		c0.08-0.15,0.19-0.28,0.28-0.42c1.16-1.74,2.55-3.25,4.26-4.49c3.23-2.35,5.85-5.22,7.26-9.06c1.36-3.7,2.58-7.43,2.35-11.45
		C141.61,124.81,141.34,122.25,141.11,119.58z M221.39,258.83c0.08,0.01,0.16,0.02,0.24,0.03c0,1.12,0.05,2.25-0.01,3.36
		c-0.12,2.3,0.74,4.27,2.02,6.08c0.37,0.52,0.95,0.93,1.51,1.28c1.61,0.98,3.42,0.92,5.22,0.9c3.09-0.03,6.06-2.38,6.83-5.49
		c0.79-3.18,0.83-6.43,0.63-9.69c-0.13-2.02-0.81-3.75-2.15-5.32c-1.43-1.67-3.38-2.55-5.07-3.81c-1.43-1.06-3-1.08-4.63-1.02
		c-1.36,0.06-2.36,0.69-2.88,1.95c-0.34,0.82-0.68,1.69-0.78,2.56C221.95,252.71,221.69,255.78,221.39,258.83z M34.68,258.73
		c0.08,0.01,0.15,0.02,0.23,0.02c0,1.07,0.05,2.13-0.01,3.2c-0.13,2.24,0.63,4.19,1.88,5.96c0.43,0.61,1.08,1.12,1.73,1.52
		c1.49,0.93,3.19,0.83,4.88,0.9c3.37,0.14,6.66-2.81,7.25-6.05c0.48-2.67,0.71-5.34,0.53-8.03c-0.1-1.44-0.2-2.97-0.77-4.25
		c-0.79-1.79-2.17-3.26-3.86-4.34c-1.23-0.78-2.49-1.5-3.75-2.24c-0.28-0.17-0.59-0.34-0.91-0.4c-3.8-0.69-5.62,0.58-6.31,4.37
		c-0.02,0.11-0.03,0.22-0.04,0.33C35.25,252.72,34.97,255.73,34.68,258.73z M77.61,258.33c-0.07-0.01-0.14-0.02-0.21-0.03
		c0-0.79-0.01-1.57,0-2.36c0.06-3.5-1.62-6.08-4.33-8.08c-0.94-0.69-2.01-1.21-2.99-1.87c-1.21-0.81-2.5-1.03-3.95-1.06
		c-1.82-0.04-3.37,0.7-3.83,2.78c-0.52,2.34-0.93,4.73-1.12,7.11c-0.19,2.4,0.02,4.82-0.06,7.23c-0.07,2.12,0.64,3.94,1.72,5.69
		c0.52,0.85,1.25,1.38,2.12,1.84c1.57,0.82,3.26,0.69,4.93,0.71c3.03,0.05,6.22-2.54,6.84-5.67
		C77.14,262.56,77.32,260.44,77.61,258.33z M140.35,257.11c-0.44,3.34,0.7,6.44,2.13,9.44c0.65,1.36,1.51,2.62,3.09,3.15
		c1.87,0.63,3.77,0.66,5.63,0.14c1.61-0.45,2.77-1.53,3.09-3.23c0.74-3.96,1.58-7.9,1.31-11.99c-0.16-2.41-0.86-4.53-2.84-5.99
		c-1.2-0.89-2.55-1.61-3.9-2.27c-0.49-0.24-1.23-0.23-1.76-0.05c-2.3,0.78-4.04,2.35-5.46,4.26
		C140.23,252.49,140.15,254.74,140.35,257.11z M118.89,269.01c1.2-0.07,2.19-0.14,3.17-0.2c2.47-0.15,4.9-0.46,7.11-1.69
		c2.03-1.13,3.84-2.4,3.59-5.13c-0.02-0.27,0.13-0.55,0.14-0.82c0.14-2.17,0.38-4.28-0.9-6.34c-0.83-1.34-1.46-2.74-2.94-3.53
		c-0.38-0.2-0.64-0.62-0.98-0.91c-2.7-2.3-5.52-4.37-9.2-4.83C118.89,253.36,118.89,261.11,118.89,269.01z M70.75,211.82
		c-3.48-0.19-6.72-0.36-9.96-0.55c-0.72-0.04-1.45-0.12-2.16-0.27c-2.58-0.53-5.14-1.1-7.72-1.64c-1.17-0.25-1.82,0.01-2.33,1.08
		c-0.3,0.64-0.49,1.38-0.55,2.09c-0.15,1.9-0.21,3.81-0.29,5.71c-0.12,2.91,1.31,4.85,3.78,6.23c3.08,1.72,6.44,2.21,9.87,2.38
		c0.73,0.04,1.56-0.22,2.22-0.57c1.43-0.76,2.81-1.63,4.15-2.54c0.51-0.34,0.86-0.92,1.33-1.45c-0.48-0.22-0.73-0.4-0.99-0.45
		c-0.49-0.08-1-0.1-1.5-0.12c-2.8-0.12-4.09-1.2-4.68-3.89c-0.06-0.27-0.12-0.55-0.17-0.82c-0.32-1.72,0.41-3.48,1.75-4.25
		c1.32-0.76,3.4-0.42,4.63,0.83c0.75,0.76,1.58,1.22,2.84,1.11C70.9,213.82,70.84,212.95,70.75,211.82z M179.5,135.64
		c-0.18-1.29-0.23-2.42-0.52-3.47c-0.86-3.19-1.74-6.38-2.75-9.53c-0.58-1.8-1.31-3.59-2.19-5.26c-0.74-1.41-1.74-2.71-3.19-3.76
		c-0.15,0.74-0.3,1.33-0.4,1.92c-0.47,2.82-0.9,5.64-1.41,8.46c-0.72,3.94-0.87,8.04-3.4,11.65
		C170.33,135.64,174.73,135.64,179.5,135.64z M236.76,5.27c-4.47,0-8.63,0-12.93,0c5.88,5.38,10.54,11.38,13.3,18.83
		C237.01,17.87,236.88,11.64,236.76,5.27z M84.87,212.72c-1.99-0.14-3.83-0.32-5.66-0.39c-1.82-0.07-3.65-0.01-5.46-0.01
		c0,1.18,0,2.18,0,3.14C79,217.24,82.32,216.5,84.87,212.72z M195.99,179.59c1.1-1.88,2.11-3.6,3.25-5.55
		c-3.01,1.46-5.86,2.83-8.94,4.32C192.3,179.65,194.26,179.49,195.99,179.59z"/>
	<path d="M82.7,118.44c1.31,0.47,1.51,1.28,1.77,2.08c1.14,3.47,1.75,7.06,2.35,10.65c0.43,2.61,1.73,4.85,3.41,6.84
		c1.07,1.28,2.72,1.25,4.19,1.41c1.56,0.16,3.16,0.16,4.71-0.01c2.03-0.22,3.92-1.04,5.45-2.39c1.77-1.56,3.15-3.44,4.38-5.5
		c3.05-5.13,5.25-10.66,7.61-16.1c0.85-1.95,1.46-4,2.1-6.03c0.6-1.91,0.1-3.79-0.42-5.63c-0.35-1.24-0.75-2.47-1.19-3.68
		c-0.19-0.51-0.44-1.07-0.83-1.43c-1.62-1.47-3.22-2.96-5.26-3.88c-2.42-1.09-4.71-2.45-6.4-4.53c-1.38-1.69-2.58-3.52-3.86-5.3
		c-1.58-2.18-3.12-4.39-4.74-6.54c-0.82-1.08-1.83-1.94-3.2-2.35c-1.77-0.53-3.4-0.6-4.89,0.71c-0.42,0.36-0.91,0.69-1.43,0.86
		c-0.37,0.12-0.91,0.07-1.23-0.14C85,77.36,84.94,76.8,85,76.47c0.49-2.68,1.66-3.5,4.43-3.67c3.45-0.21,6.47,0.9,8.59,3.72
		c2.63,3.49,5.12,7.08,7.64,10.66c1.5,2.12,3.47,3.68,5.8,4.73c2.51,1.12,4.61,2.77,6.58,4.61c0.52,0.49,1.07,1.08,1.3,1.73
		c1.14,3.28,2.33,6.54,2.58,10.07c0.16,2.28-0.61,4.35-1.36,6.36c-1.43,3.83-3,7.62-4.8,11.29c-1.67,3.41-3.51,6.78-5.66,9.91
		c-1.16,1.7-3,3.04-4.74,4.22c-2.35,1.59-5,2.47-7.96,2.13c-1.39-0.16-2.81-0.1-4.21-0.01c-1.85,0.13-3.29-0.59-4.43-1.96
		c-1.82-2.18-3.18-4.63-3.89-7.39c-0.61-2.39-1.18-4.79-1.66-7.21c-0.35-1.76-0.58-3.54-0.78-5.33
		C82.37,119.77,82.59,119.19,82.7,118.44z"/>
	<path d="M130.04,231.23c-2.43-0.05-3.48-1.17-3.45-3.38c0.03-1.75,0.87-3.11,2.08-4.24c1.09-1.02,2.74-1.1,4.06-0.36
		c1.27,0.72,1.8,1.75,1.37,3.43c-0.3,1.16-0.9,2.28-1.55,3.29C131.96,230.9,130.98,231.39,130.04,231.23z"/>
	<path d="M212.35,185.78c0.35-1.11,0.58-2.28,1.09-3.31c0.66-1.35,1.83-1.7,3.27-1.25c2.72,0.86,3.96,3.16,2.99,5.55
		c-0.73,1.79-3.19,2.98-5.02,2.43C213.13,188.75,212.51,187.76,212.35,185.78z"/>
</g>
</svg>
