<?xml version="1.0" encoding="utf-8"?>
<!-- Generator: Adobe Illustrator 26.0.1, SVG Export Plug-In . SVG Version: 6.00 Build 0)  -->
<svg version="1.1" id="Layer_1" xmlns="http://www.w3.org/2000/svg" xmlns:xlink="http://www.w3.org/1999/xlink" x="0px" y="0px"
	 viewBox="0 0 121.33 448.37" style="enable-background:new 0 0 121.33 448.37;" xml:space="preserve">
<path d="M33.08,437.37c1.84,1.45,3.04,5.65,2.12,8.2c-0.64,1.76-2.68,2.59-4.57,1.85c-2.71-1.07-4.11-4.14-3.01-7.18
	c0.49-1.37,1.49-2.55,2.45-4.15c0-0.74-0.08-1.97,0.02-3.18c0.1-1.18,0.4-2.29-0.21-3.49c-0.6-1.19-0.05-2.33,0.83-3.41
	c-1.28-1.65-1.04-9.93-0.16-11.94c0.06-0.14,0.16-0.34,0.11-0.45c-1.82-3.91-1-8.12-1.21-12.17c-0.4-7.81-0.48-15.65-0.39-23.47
	c0.12-10.69,0.7-21.37,1.8-32.02c0.49-4.74,0.14-9.57,0.32-14.35c0.17-4.72-0.58-9.37-0.74-14.07c-0.05-1.42-0.01-2.85-0.01-4.4
	c-4.24-1.04-8.46-1.3-12.76-0.55c-2.83,0.49-5.68,0.85-8.53,1.21c-2.29,0.29-4.49-0.3-6.55-1.13c-2.76-1.12-3.37-4.12-1.6-6.52
	c1.51-2.05,2.94-4.17,4.44-6.24c0.56-0.77,1.18-1.51,1.84-2.19c3.04-3.15,6.08-6.29,9.16-9.4c0.95-0.96,1.95-1.87,3.03-2.68
	c4.07-3.07,8.2-6.06,12.25-9.16c1.71-1.31,3.21-2.87,4.89-4.21c1.04-0.83,2.2-1.54,3.37-2.18c1.26-0.68,2.56-1.3,3.91-1.79
	c1.49-0.55,2.43-1.32,2.47-3.08c0.01-0.56,0.71-1.23,1.26-1.63c0.96-0.7,2.04-1.22,3.12-1.84c0.86-1.66-0.79-4.61,2.62-5.09
	c0-2.52-0.08-4.98,0.02-7.44c0.16-3.98,0.45-7.95,0.66-11.93c0.29-5.25,0.72-10.49,0.79-15.74c0.07-4.92-0.24-9.84-0.43-14.76
	c-0.08-1.9-0.46-3.8-0.43-5.69c0.07-5.09,0.21-10.18,0.45-15.26c0.26-5.49,0.64-10.97,1.02-16.45c0.2-2.94,0.7-5.87,0.74-8.8
	c0.06-5-0.24-10.01-0.2-15.01c0.05-7.18-0.23-14.42,0.56-21.53c0.87-7.9,0.42-15.78,0.8-23.67c0.29-6.05,0.37-12.12,0.55-18.18
	c0.1-3.19,0.25-6.38,0.29-9.57c0.04-2.39-0.34-4.71-0.84-7.08c-0.53-2.53-0.22-5.23-0.25-7.86c-0.01-1.27,0.11-2.55,0.05-3.82
	c-0.25-5.81-0.63-11.63-0.77-17.44c-0.09-3.74,0.2-7.49,0.29-11.24c0.09-3.91,0.11-7.82,0.24-11.73c0.15-4.23,0.39-8.45,0.6-12.67
	c0.01-0.27,0.15-0.54,0.58-0.78c0.08,1.56,0.25,3.12,0.22,4.68c-0.09,4.86-0.28,9.71-0.39,14.57c-0.06,2.54-0.07,5.08-0.1,7.62
	c-0.05,5.18-0.15,10.36-0.13,15.53c0.02,4.94,0.11,9.89,0.29,14.83c0.11,3.02,0.46,6.03,0.66,9.05c0.24,3.72,0.64,7.43,0.17,11.18
	c-0.23,1.81-0.1,3.67-0.14,5.5c-0.14,7.32-0.3,14.64-0.42,21.96c-0.05,3.19,0.1,6.39-0.06,9.58c-0.32,6.29-0.96,12.57-1.17,18.87
	c-0.24,7.26-0.37,14.54-0.14,21.8c0.19,5.93-0.37,11.78-0.78,17.67c-0.54,7.72-1.1,15.45-1.14,23.18
	c-0.04,7.63,0.68,15.27,0.82,22.9c0.15,7.97,0.03,15.94-0.87,23.88c-0.32,2.83-0.04,5.73,0.03,8.6c0.04,1.64,0.2,3.27,0.32,5.06
	c1.16-0.09,2-0.15,2.94-0.22c0.09-0.49,0.23-0.87,0.21-1.25c-0.21-4.47,0.09-8.89,0.74-13.33c0.65-4.4,0.89-8.84,0.83-13.32
	c-0.07-5.72,0.37-11.44,0.57-17.16c0.11-3.18,0.19-6.36,0.27-9.54c0.13-5.48,0.41-10.97,0.31-16.44c-0.09-4.68-0.64-9.35-0.96-14.02
	c-0.15-2.15-0.26-4.3-0.36-6.46c-0.34-7.16-0.87-14.32-0.92-21.48c-0.04-4.77,0.62-9.55,0.97-14.32c0.52-7.24,1.2-14.47,1.51-21.71
	c0.21-5.08-0.11-10.18-0.13-15.28c0-1.51,0.31-3.01,0.33-4.52c0.09-5.03,0.1-10.05,0.16-15.08c0.02-1.68,0.05-3.35,0.12-5.02
	c0.09-2.3,0.12-4.61,0.35-6.9c0.14-1.35-0.55-2.59-0.11-4.01c0.39-1.26,0.35-2.68,0.34-4.03c-0.01-1.43-0.21-2.87-0.31-4.3
	c-0.6-8.44-1.21-16.88-1.8-25.32c-0.44-6.26,0.29-12.43,1.32-18.59c0.04-0.23,0.13-0.46,0.25-0.66c0.07-0.11,0.26-0.14,0.6-0.3
	C62.31,4.4,62.1,5.45,62.06,6.5c-0.21,5.5-0.46,10.99-0.51,16.49c-0.03,2.77,0.32,5.55,0.51,8.33c0.46,6.53,1.06,13.05,1.33,19.58
	c0.17,4.12-0.15,8.27-0.28,12.4c-0.17,5.22-0.45,10.43-0.54,15.65c-0.13,7.33-0.11,14.67-0.19,22c-0.05,4.7,0.03,9.42-0.3,14.11
	c-0.5,7-1.48,13.97-1.94,20.97c-0.31,4.75,0.01,9.54-0.14,14.3c-0.17,5.21,0.9,10.31,1.15,15.48c0.45,9.39,1.32,18.75,0.93,28.17
	c-0.32,7.81-0.54,15.63-0.72,23.44c-0.08,3.27-0.12,6.55,0.1,9.81c0.37,5.3-0.51,10.49-0.98,15.73c-0.34,3.8-0.24,7.65-0.24,11.47
	c0,1,0.23,1.96,1.13,2.76c0.51,0.45,0.55,1.45,0.74,2.22c0.32,1.28,0.94,2.19,2.43,2.17c1.83-0.02,2.69,1.04,3.17,2.68
	c0.35,1.21,0.9,2.37,1.36,3.55c7.7,2.42,14.63,6.2,21.26,10.75c7.53,5.16,14.29,11.18,21.13,17.17c3.5,3.07,5.19,7.2,7.33,11.08
	c0.91,1.66,1.69,3.4,2.55,5.14c-1.36,1.11-2.65,1.78-4.22,1.86c-8.13,0.39-16.26,0.84-24.39,1.17c-3.03,0.12-6.06-0.01-9.1-0.08
	c-1.56-0.04-2.64,0.39-3.52,1.88c-1.79,3-4.72,4.74-7.88,5.98c-6.29,2.47-12.71,3.51-19.44,1.73c-4.65-1.23-8.57-3.37-11.32-7.41
	c-1.03-1.51-2.06-3.01-3.23-4.7c-1.62,0.13-3.34,0.27-5.25,0.42c0,1.9-0.18,3.58,0.03,5.21c0.75,5.81,0.81,11.63,0.66,17.46
	c-0.1,3.75-0.47,7.5-0.36,11.23c0.24,8.3-0.07,16.59-0.68,24.86c-0.62,8.39-0.12,16.74,0.06,25.12c0.09,4.39,0.07,8.78,0.1,13.17
	c-1.13,1.94,0.01,3.54,0.66,5.28c0.52,1.38,0.24,9.33-0.6,10.83c-0.23,0.41-0.07,1.06-0.02,1.6c0.07,0.79,0.34,1.58,0.27,2.35
	c-0.11,1.26,0.06,2.42,0.33,3.65C33.68,434.69,33.24,435.95,33.08,437.37z M119.82,311.41c-3.32-5.41-5.21-11.17-10.05-15.31
	c-6.12-5.23-11.92-10.83-18.7-15.24c-2.8-1.82-5.56-3.7-8.41-5.42c-2.24-1.35-4.51-2.72-6.93-3.69c-2.56-1.03-5.27-2-7.99-2.29
	c-4.75-0.5-9.57-0.28-14.33-0.68c-4.47-0.38-8.54,0.47-12.36,2.75c-1.3,0.77-2.89,1.26-3.86,2.32c-3.44,3.76-8.05,5.95-11.91,9.14
	c-4.17,3.44-8.64,6.48-12.3,10.55c-3.79,4.21-7.57,8.39-10.56,13.23c-1.51,2.45-1.03,3.63,1.63,4.74c3.38,1.42,6.77,0.66,10.11,0.18
	c4.02-0.57,7.98-1.53,12.09-0.68c1.39,0.29,2.85,0.4,4.28,0.38c3.03-0.05,6.05-0.31,9.08-0.36c3.11-0.06,6.23-0.14,9.32,0.08
	c3.01,0.21,5.98,0.87,8.99,1.2c4.12,0.46,8.24,0.85,12.37,1.15c2.14,0.15,4.3,0,6.46,0.06c2.08,0.06,4.12-0.52,6.25-0.11
	c1.38,0.27,2.86-0.06,4.29-0.01c6.93,0.23,13.83-0.09,20.74-0.76c3.06-0.29,6.1-1.23,9.26-0.61
	C117.94,312.18,118.71,311.71,119.82,311.41z M40.38,312.51c1.41,3.11,3.18,5.41,5.52,7.26c4.24,3.33,9.28,4.05,14.45,4.19
	c4.16,0.11,8-1.26,11.79-2.82c2.33-0.96,4.32-2.37,5.97-4.27c0.32-0.37,0.48-0.89,0.73-1.37c-4.51-0.24-8.81-0.37-13.09-0.72
	c-4.29-0.35-8.6-0.66-12.82-1.46C48.88,312.54,44.85,312.55,40.38,312.51z M32.33,346.04c-1.86,10.4-2.2,20.98-2.36,31.57
	c-0.18,11.31,0.56,29.65,1.35,32.1c0.12-4.36,0.3-8.32,0.31-12.29c0.01-8.12-0.72-16.22-0.13-24.36c0.47-6.52,0.6-13.07,0.83-19.61
	C32.4,350.98,32.33,348.51,32.33,346.04z M66.31,267.51c0.01-3.65-0.65-4.29-3.97-4.07c-0.32,0.02-0.65,0.05-0.95-0.03
	c-3.25-0.84-6.47,0.38-9.73,0.2c-1.85-0.1-2.94,1.19-3.38,3.28C54.33,267.1,60.32,267.3,66.31,267.51z M34.43,442.28
	c-0.13-0.52-0.28-1.46-0.63-2.33c-0.53-1.29-2.62-1.88-3.59-1.1c-1.72,1.37-2.19,4.01-0.99,5.79c0.75,1.11,1.8,1.93,3.16,1.72
	c1.4-0.22,1.7-1.49,1.89-2.71C34.32,443.35,34.35,443.03,34.43,442.28z M60.37,260.45c-0.17-0.78-0.32-1.44-0.47-2.14
	c-2.32,0.13-4.49,0.24-6.87,0.37c-0.05,0.86-0.09,1.68-0.14,2.48C57.56,261.85,57.56,261.85,60.37,260.45z M32.36,414.45
	c-1.44,2.05-1.95,9.01-0.09,9.91C32.11,423.19,32.56,415.77,32.36,414.45z M31.83,432.77c-0.67,1.67-0.67,1.67,0.44,2.63
	C32.91,434.43,32.65,433.65,31.83,432.77z M32.2,430.24c-0.12-1.12-0.19-1.72-0.31-2.76C30.91,428.6,30.93,429.22,32.2,430.24z"/>
</svg>
