<svg id="Layer_1" data-name="Layer 1" xmlns="http://www.w3.org/2000/svg" viewBox="0 0 242.08 246.92"><path d="M234.64,48.5a5,5,0,0,1,.85-2.76c.14-.82.26-1.64.34-2.47.2-1.94.6-3.86.91-5.79h.14a6.11,6.11,0,0,1,.11-1l.12-.58c.2-1.72.38-3.51.44-5.29-.07-1.33-.12-2.76-.24-4.15a13.56,13.56,0,0,1-.35-2.18c-.05-.16-.07-.32-.12-.47a5.38,5.38,0,0,1-.18-.85c-.09-.2-.17-.4-.25-.6a4,4,0,0,1-.31-.75A47.66,47.66,0,0,0,226,7.39c-.74-.59-1.47-1.2-2.2-1.87a10.07,10.07,0,0,0-3.22-2.08A10.48,10.48,0,0,0,218.4,3a4.62,4.62,0,0,1-.93.42l-.09,0c.89-.19.13-.34-.07,1.2A9.09,9.09,0,0,1,217,6,.64.64,0,0,0,217,6c0,2.72,1.4,4.92,2.47,7.26,1.16,2.55,2.22,5.18,2,8.09,0,.22,0,.45,0,.68A46.48,46.48,0,0,1,219.16,38a29,29,0,0,1-4.22,8.91A11.4,11.4,0,0,1,209,51a23,23,0,0,1-7.78,1.14c-1.91-.07-3.83-.1-5.73,0a13.35,13.35,0,0,1-8-2.49,20.7,20.7,0,0,0-3.82-2.05,63.61,63.61,0,0,0-8.3-2.67A48.82,48.82,0,0,0,157.77,44a9.59,9.59,0,0,0-2.09.6,81.42,81.42,0,0,1-10.28,3,39.59,39.59,0,0,0-7.81,2.54,18.53,18.53,0,0,1-4.52,1.23c-4.56.92-9.17,1.6-13.68,2.73a119.94,119.94,0,0,0-16.28,5.31,59.59,59.59,0,0,1-5.81,1.68c-3,.86-6.06,1.63-9,2.63-2.38.8-4.66,1.92-7,2.83-1.67.64-3.4,1.13-5.07,1.77-4.6,1.78-9.16,3.66-13.78,5.38A31.5,31.5,0,0,1,57.2,75a1.69,1.69,0,0,1-1.27-.59c-1.19-1.33-2.7-1.57-4.39-1.74a11.13,11.13,0,0,0-8.23,2.72c-2.25,1.76-4.59,3.41-6.9,5.11a113.36,113.36,0,0,0-10.77,9.41,5.47,5.47,0,0,0-.79.88c-2,3.15-4.24,6.18-5.69,9.71-2.3,5.6-4.85,11.1-7.33,16.63a20.7,20.7,0,0,0-1.65,7,28,28,0,0,0-.18,3,13.42,13.42,0,0,0,5.65,11c2.08,1.54,4.23,2.73,7,2.48a4.64,4.64,0,0,0,2.5-.83c1.93-1.43,3.91-2.79,6-4.24,1.07,2,2.11,3.81,3.07,5.69.68,1.35.33,2.76,0,4.12-1.22,4.66-2.45,9.32-4.06,13.87a103,103,0,0,1-4.63,11.35,46.46,46.46,0,0,1-4.12,6.34c-1.6,2.23-3.32,4.38-5,6.54s-3.25,4.14-4.93,6.16a13.3,13.3,0,0,1-2.07,2,9.65,9.65,0,0,0-3.08,3.93,8.55,8.55,0,0,1-.76,1.28,6.33,6.33,0,0,1-.37,1.14c.33-.76-.23.85-.27,1s-.13,1.16-.11.68c0,.92-.08,1.84-.08,2.77a4.82,4.82,0,0,1-.21,1.34,5,5,0,0,1,.91,1.91,16.27,16.27,0,0,0,12.26,3.16,9.69,9.69,0,0,0,6.81-3.59c1.51-2,3.09-3.83,4.42-5.93a52.62,52.62,0,0,1,3.88-4.86,24.8,24.8,0,0,1,1.67-1.89,35.85,35.85,0,0,0,5.87-8.78A94.09,94.09,0,0,0,44,175c1.05-2.59,2.05-5.2,3-7.82.89-2.36,1.71-4.74,2.58-7.1,1.41-3.83,3.51-7.16,7.16-9.22a13,13,0,0,1,3.74-1.45c2.41-.5,4.86-.86,7.3-1.13,2-.22,4-.26,6-.33,4.3-.14,8.12,1.47,11.83,3.35a36.78,36.78,0,0,1,3.57,2.24c2.81,1.85,4.3,4.31,3.42,8-.23,1-.33,2-.49,3a4.05,4.05,0,0,1-2.13,3c-8.06,4.82-16.83,7.91-25.72,10.69-4.55,1.43-9.14,2.71-13.66,4.19a66,66,0,0,0-7.15,2.9,7,7,0,0,0-4.26,7.18c.13,3.37.22,6.73.3,10.1A2.83,2.83,0,0,0,41.09,205c1.57,1,3.12,2,4.83,3.06-.34,1.06-.7,2.06-1,3.09-.47,1.61-.31,8.93.18,10.53a7.85,7.85,0,0,0,4.56,5.12c3.29,1.41,6.57,2.86,10.21,3.19a6.29,6.29,0,0,0,4.06-.68c1.91-1.18,3.87-2.28,5.75-3.51a4.48,4.48,0,0,0,2.1-3.18c12,2.14,24,4.72,36.12,7,0,.63.1,1.28.11,1.94a9.89,9.89,0,0,0,3.62,7.32,6.37,6.37,0,0,0,1.91,1,40.68,40.68,0,0,1,3.94,1.67l-.17,0a22.68,22.68,0,0,0,5.3,1.25c2.84.08,5.86-.77,8.62-1.47.21-.12.43-.23.65-.34a19.15,19.15,0,0,0,5.9-5.18c1.73-2,2-4.43,2.12-6.9a52.15,52.15,0,0,0,0-5.73,20.56,20.56,0,0,0-3.27-10,3.81,3.81,0,0,0-3.31-1.66c-4.43-.14-8.87-.18-13.29-.4-2.32-.12-4.12.95-5.84,2.17A14.37,14.37,0,0,0,109,220.6a10.13,10.13,0,0,1-10-4.5,4.23,4.23,0,0,1-.65-3l5.52-.73c2.88-.39,5.78-.69,8.64-1.23a43.54,43.54,0,0,0,5.29-1.62c3-1,6.07-2,9.08-3,1.37-.49,2.68-1.15,4-1.71,5.21-2.2,10.42-4.43,15.65-6.59,4.19-1.73,8.43-3.36,12.62-5.1,2.74-1.14,5.44-2.39,8.16-3.58,1.64-.72,3.31-1.38,4.93-2.13a23.56,23.56,0,0,0,3.1-1.65,6.39,6.39,0,0,1,5.4-.8c4.79,1.15,9.66,2,14.54,2.91a36.63,36.63,0,0,0,.51,3.64,8.27,8.27,0,0,0,4.93,6,47.35,47.35,0,0,0,6.41,2.52,12.47,12.47,0,0,0,10.64-1.38,16,16,0,0,0,4.64-4.06,13.6,13.6,0,0,0,1.95-6.38,54.3,54.3,0,0,0,.24-8.07,7.88,7.88,0,0,0-4.66-7.21,17.56,17.56,0,0,0-9-2.09,12.92,12.92,0,0,1-3.7-.5,26.87,26.87,0,0,0,2.74-1.08c1.89-1,3.72-2.07,5.59-3.09s3.73-2,5.65-3a21.24,21.24,0,0,0,8-7.28c1.31-1.87,1.56-4.21,1.67-6.45.14-2.74,0-5.5.06-8.26a2.24,2.24,0,0,0-1.41-2.26,6.62,6.62,0,0,0-2.25-.62c-2.91-.19-5.86-.07-8.73-.48-3.33-.48-6.72,0-10-.86a22.46,22.46,0,0,0-3.86-.12c-1.38-.08-2.76-.26-4.27-.42a7.06,7.06,0,0,1,.35-1.3c.82-1.66,1.66-3.3,2.51-4.94A49.54,49.54,0,0,0,207.74,118a25.72,25.72,0,0,0,.42-5.2c.06-4.77.11-9.55,0-14.32a19.78,19.78,0,0,0-1-5.26c-1.06-3.49-2.29-6.92-3.47-10.37-.95-2.79-.72-3.33,2.07-4,1.84-.46,3.74-.7,5.59-1.14a13.9,13.9,0,0,0,3.15-1.12c2.13-1.13,4.25-2.3,6.26-3.62a28.05,28.05,0,0,0,3-2.71,40.25,40.25,0,0,0,7.66-9.77,4,4,0,0,0,.4-.93c1-3.25,2-6.48,2.85-9.76ZM113.34,218.16a8.26,8.26,0,0,1,4-2.91c2.7-1.15,5.49-.95,8.28-.95,1.4,0,2.81,0,4.21,0a6,6,0,0,1,5.26,3.81,31.63,31.63,0,0,1,1.6,12.94,7.29,7.29,0,0,1-2,4.19,13.89,13.89,0,0,1-6.35,4.25c-.52.18-1,.38-1.57.59a5,5,0,0,1-3.9.09c-2.61-1-5.29-1.82-8-2.69a5.53,5.53,0,0,1-3.54-3.57A17,17,0,0,1,113.34,218.16Zm-45.2-4.57A3.7,3.7,0,0,0,61.76,217c.05.28.11.55.17.83.59,2.69,1.89,3.76,4.68,3.89a12.8,12.8,0,0,1,1.51.12,5,5,0,0,1,1,.44,9.11,9.11,0,0,1-1.33,1.46,46.69,46.69,0,0,1-4.16,2.54,4.48,4.48,0,0,1-2.22.57,21.92,21.92,0,0,1-9.87-2.38c-2.47-1.38-3.9-3.32-3.78-6.22.07-1.91.14-3.82.29-5.72a6,6,0,0,1,.54-2.09,1.76,1.76,0,0,1,2.33-1.08c2.57.54,5.14,1.11,7.71,1.64a17.46,17.46,0,0,0,2.16.27c3.24.19,6.48.36,10,.55.09,1.13.15,2,.22,2.88A3.29,3.29,0,0,1,68.14,213.59Zm5.61,1.87v-3.15c1.8,0,3.63-.05,5.45,0s3.68.24,5.67.39C82.32,216.5,79,217.24,73.75,215.46Zm116.54-37.1,8.94-4.32L196,179.59C194.26,179.49,192.3,179.65,190.29,178.36Zm18.94-4.74a9.63,9.63,0,0,0,1.66.2c2.75-.24,5.17.86,7.63,1.78a4,4,0,0,1,2.23,2.58c1,2.8,1.16,5.7,1.29,9.35.42,3.5-2.09,5.94-5.14,8.25-2.21,1.68-4.67,1.68-7.15,1.94a3,3,0,0,1-1.31-.24c-2.78-1-5.63-1.88-8.16-3.51a4.59,4.59,0,0,1-2.33-4,55.15,55.15,0,0,1,.08-6.56c.48-4.12,2.31-7.49,6.22-9.38C205.84,173.24,207.55,173.5,209.23,173.62Zm16.28-27c0-2.12,0-4.24,0-6.56l2.56.53c-.17,4.29.51,8.52-.84,12.62a6.61,6.61,0,0,1-1,1.91,22.88,22.88,0,0,1-8.18,6.58c-2.4,1.21-4.7,2.62-7.1,3.83-1.69.86-3.5,1.48-5.22,2.29-3,1.41-5.95,2.87-8.92,4.32-9.12,4.46-18.16,9.07-27.37,13.34-6.71,3.11-13.62,5.79-20.45,8.65-2.89,1.21-5.8,2.41-8.71,3.57-1.46.57-3,1-4.42,1.6-2.36,1-4.64,2.25-7,3.3-1.31.59-2.7,1-4.07,1.5-3.22,1.14-6.45,2.23-9.66,3.4a40.09,40.09,0,0,1-8,1.79c-8.28,1.21-16.59.75-24.89.52-4.15-.12-8.31-.18-12.44-.55-4.74-.43-9.55-.24-14.23-1.3s-9.23-2.35-13.15-5.26a2.64,2.64,0,0,1-.51-.43c-.39-.49-.52-1.09,0-1.47a1.36,1.36,0,0,1,1.16.13c1.26.72,2.46,1.55,3.71,2.28a7.39,7.39,0,0,0,2.15.92c4,.82,7.89,1.75,11.88,2.27a102.58,102.58,0,0,0,11.75.78q11,.18,22.08,0a57,57,0,0,0,9-.93c4.64-.82,9.26-1.76,13.82-2.9A157.12,157.12,0,0,0,134,198c1.52-.56,3.1-1,4.59-1.63a21.68,21.68,0,0,0,4.19-2.12c2.56-1.79,5.47-2.83,8.29-4.07,2.15-.94,4.36-1.77,6.43-2.87,2.55-1.36,5.34-2,8-2.95,1.8-.64,3.63-1.18,5.37-1.93,2.94-1.25,5.83-2.58,8.67-4.08,3.09-1.65,6.47-2.77,9.73-4.12.41-.18.83-.34,1.23-.54l7.26-3.51c.55-.26,1.11-.54,1.65-.83,1.09-.58,2.15-1.21,3.25-1.77,2.5-1.26,5-2.49,7.51-3.75,1.7-.87,3.42-1.7,5-2.68,3.54-2.14,6.78-4.64,8.67-8.45A13.87,13.87,0,0,0,225.51,146.58Zm-2.92-5.7c0,2.88.39,5.68-.46,8.5a12.59,12.59,0,0,1-3.71,5.89,23.9,23.9,0,0,1-9.29,5.56c-.81.23-1.44,1-2.22,1.47-1.93,1-3.93,1.91-5.84,2.95-3.1,1.7-6.34,3.1-9.51,4.64-4.13,2-8.35,3.79-12.58,5.56a11.3,11.3,0,0,0-1.35.67,69.21,69.21,0,0,1-11.8,5.27c-3.46,1.3-7,2.5-10.35,3.93a126.76,126.76,0,0,0-16.21,7.75,7.42,7.42,0,0,1-1.38.61c-3.27,1.16-6.54,2.36-9.84,3.44-3.66,1.21-7.33,2.46-11.07,3.4-4.5,1.14-9.06,2.13-13.64,2.89a68.94,68.94,0,0,1-10,.84c-8,.12-16,0-23.92.06a71.2,71.2,0,0,1-14.73-1.22,24.13,24.13,0,0,1-10.45-4.78,6.17,6.17,0,0,1-.8-9.45,6.66,6.66,0,0,1,2.19-1.51,122,122,0,0,1,14.1-5.42c4.52-1.31,9-2.63,13.53-4.05a64.7,64.7,0,0,0,14-5.94c1-.56,2-1,3.25-1.63-1.27,3.84-2.54,7.32-5.42,10a5.89,5.89,0,0,1-3.7,1.75c-.78,0-1.54.32-2.31.43-4,.59-5.2,2.57-6,7-.11.6.05,1.24,0,1.85-.33,2.53,1.07,3.84,3.09,5,3.46,2,7.16,2.07,10.93,1.71a17.65,17.65,0,0,0,8-2.41,22.77,22.77,0,0,0,4.68-3.52c1.89-2.12,4-4.09,5.4-6.64.81-1.46,2.12-2.62,3-4a63.07,63.07,0,0,0,7.38-13.94c.76-2.17,1.71-4.27,2.57-6.4a1.64,1.64,0,0,1,1.12-1.12c1.93-.52,3.84-1.14,5.86-1.75.17,1.82.22,3.34.49,4.82s.78,3.09,2.52,3.7a4.47,4.47,0,0,0,1.29.29c3.16.12,6.29,0,9.23-1.37a3.23,3.23,0,0,1,1-.29,32.64,32.64,0,0,0,7.43-2.61,13,13,0,0,0,6.93-7.38c1.82-4.21,3.5-8.51,6.29-12.24.9-1.21,1.66-2.52,2.54-3.75.26-.37.7-.87,1.07-.87,4.65-.06,9.29,0,14.26,0-.88,1.58-1.6,2.95-2.38,4.29-1.11,1.88-2.31,3.71-3.38,5.61s-2.22,4.15-3.31,6.24a6.09,6.09,0,0,1-2.57,2.58,24.94,24.94,0,0,0-3,1.87,8.77,8.77,0,0,0-3.14,5.94c-.17,1-.05,2-.13,3a4.74,4.74,0,0,0,3.51,5,13.54,13.54,0,0,0,8.73.5c2.34-.76,4.72-1.42,7-2.3a23.33,23.33,0,0,0,7.46-4.78,8.34,8.34,0,0,0,2.21-3.72c1.2-3.73,2.23-7.54,3.73-11.15,1.8-4.28,4-8.38,6-12.45Zm-77.8-21.39a5.14,5.14,0,0,1,1.6-4.08,79.83,79.83,0,0,0,8.7-10.71c.25-.37.54-.72.79-1.09,1.36-1.93,3-3.51,5.7-3.8,1.08,1.62,2.07,3.4,3.34,5,2.65,3.23,2.62,6.89,2.05,10.7s-1.07,7.33-1.56,11a18.29,18.29,0,0,1-3.13,7.7c-2.33,3.5-4.51,7.1-6.66,10.72-1,1.73-1.8,3.6-2.7,5.41-1.22,2.45-2.39,4.94-3.72,7.34a4.61,4.61,0,0,1-1.94,1.77,58.47,58.47,0,0,1-6.81,2.82c-2.33.76-4.76,1.22-7.16,1.76a5.86,5.86,0,0,1-2,.13,2.61,2.61,0,0,1-2.38-1.8c-1.34-3.61,0-6.61,2.07-9.4a15.94,15.94,0,0,1,2.91-2.77c3.56-2.77,6.56-6,8.15-10.28a6.3,6.3,0,0,1,.51-1.25c2.34-3.59,2.26-7.68,2.42-11.7A67.84,67.84,0,0,0,144.79,119.49Zm24.26,4.5c.51-2.81.94-5.64,1.41-8.46.1-.59.24-1.18.4-1.92a10.71,10.71,0,0,1,3.19,3.76,33.55,33.55,0,0,1,2.19,5.26c1,3.15,1.89,6.34,2.74,9.53a30.67,30.67,0,0,1,.52,3.48H165.65C168.18,132,168.33,127.93,169.05,124Zm-29.64,14.83a19.46,19.46,0,0,1-7.25,9.06,17.17,17.17,0,0,0-4.26,4.49c-.09.14-.2.27-.28.41a5.93,5.93,0,0,1-5.14,3.25c-.59.05-1.18.19-1.91.3.7-1.82,1.45-3.45,2-5.16,1.09-3.71,2-7.47,3.06-11.19a77.15,77.15,0,0,1,2.68-8.47,15.31,15.31,0,0,1,3.06-4.16c2.7-3,6.13-5.08,9.19-7.62.07-.06.2,0,.6-.15.23,2.67.5,5.23.65,7.8C142,131.39,140.77,135.12,139.41,138.82Zm89.77-80.37a9,9,0,0,1-1.36,2.5A51.2,51.2,0,0,1,222,68.14c-2.55,2.67-5.69,4.33-8.86,6a13.44,13.44,0,0,1-3.18.94c-2.29.56-4.6,1-6.87,1.62a3.66,3.66,0,0,0-2.65,3.83,13.1,13.1,0,0,0,.61,3.28c1.09,3.42,2.38,6.78,3.39,10.21a20.1,20.1,0,0,1,1,6.27c-.09,3.31,0,6.63,0,9.95a38.41,38.41,0,0,1-.4,6.71,38.3,38.3,0,0,1-2.29,7.19c-1.22,2.94-2.74,5.76-4.12,8.64-3,6.23-6,12.41-8.86,18.7a87,87,0,0,0-2.83,8.63c-.35,1.06-.75,2.11-1.19,3.14a2.72,2.72,0,0,1-.79,1.07c-2.82,2.11-5.59,4.33-9.13,5.17a9,9,0,0,0-1.56.61,11.38,11.38,0,0,1-9.15.08,3.56,3.56,0,0,1-2.32-4.32,7.16,7.16,0,0,1,3.69-5.35c2.94-1.46,4.65-4,6.12-6.73,1.13-2.13,2.25-4.27,3.42-6.38.48-.88,1.1-1.69,1.61-2.56,1.43-2.41,2.93-4.79,4.19-7.28a7,7,0,0,0,.16-4.8c-.81-3.26-1.77-6.49-2.7-9.72-.42-1.45-.9-2.89-1.43-4.31a20.65,20.65,0,0,0-4.19-6.46c-.85-1-1.44-2.17-2.32-3.08-2.57-2.66-4.15-6-6.15-9-.34-.51-.66-1-1-1.56-1.63-2.5-3.87-3-6.33-1.3-3,2-5,4.83-6.95,7.72a38.13,38.13,0,0,1-9.27,9.89c-2.8,2.06-5.69,4-8.42,6.13a24.16,24.16,0,0,0-6.87,7.78,38.3,38.3,0,0,0-3.47,10,65.74,65.74,0,0,1-3.55,12.62c-1.07,2.52-2.27,5-3.33,7.51-1.18,2.79-2.26,5.62-3.39,8.43a24.88,24.88,0,0,1-1,2.33c-2.44,4.74-4.88,9.48-8.45,13.53a43,43,0,0,0-3.5,4.93,9,9,0,0,1-4.45,3.69,37.33,37.33,0,0,0-4,1.82A20.83,20.83,0,0,1,81,195.75a6,6,0,0,1-4.47-2.05,5.73,5.73,0,0,1,2-8.69,16.55,16.55,0,0,1,2.92-.68c.76-.17,1.53-.31,2.29-.51,3.72-1,5.67-3.82,7.25-7a45.06,45.06,0,0,0,3.59-10,8.81,8.81,0,0,1,.5-1.25,17.09,17.09,0,0,0,1.06-8.77A7.08,7.08,0,0,0,93,152.06a51.38,51.38,0,0,0-10-5.17,25.29,25.29,0,0,0-10.82-2c-2.72.1-5.49,0-8.16.79-1.17.37-2.4.55-3.6.81a18.84,18.84,0,0,0-7.55,3.82c-3.35,2.6-4.94,6.12-6.21,9.94-.6,1.8-1.31,3.57-2,5.35-1.73,4.44-3.39,8.9-5.25,13.28a71,71,0,0,1-3.51,6.69c-2.48,4.46-6.15,8-9.33,11.9-1,1.22-1.93,2.49-3,3.61a45.41,45.41,0,0,1-3.87,3.47,5,5,0,0,1-3.31,1,16.43,16.43,0,0,1-6.25-1.07c-2.93-1.2-3.27-2.3-2.55-5.8a6.28,6.28,0,0,1,1.92-3.11,82.76,82.76,0,0,0,9-10.43c1.65-2.27,3.55-4.36,5.12-6.68,1.9-2.82,4.07-5.5,5.25-8.78.65-1.79,1.67-3.44,2.29-5.23,1-3,1.86-6.1,2.84-9.13,1.06-3.25,2.2-6.47,3.31-9.7a1.18,1.18,0,0,1,.23-.36c1.67.05,3.29.15,4.9.13a40.39,40.39,0,0,0,4.53-.31,4.55,4.55,0,0,0,3.91-2.85,10.59,10.59,0,0,0,5.65,2.34,36.14,36.14,0,0,0,8.57.19,3.71,3.71,0,0,0,1.59-.42,19.16,19.16,0,0,0,4.59-4.87,2.71,2.71,0,0,0,.39-.93c.06-.3.11-.73,0-.9a.93.93,0,0,0-.89-.15,13.64,13.64,0,0,0-3.17,2.16,8.77,8.77,0,0,1-8.29,3.06,12.55,12.55,0,0,0-1.84-.13,6.29,6.29,0,0,1-6.25-7.24c2-.56,4-1.09,6-1.67a18,18,0,0,0,5.73-3.11c1.78-1.33,1.87-3.21,1.61-5.17a1.59,1.59,0,0,0-1.34-1.36,25.4,25.4,0,0,0-4.3-.72c-4.71-.22-9.42-.29-14.13-.46a10.39,10.39,0,0,0-5,1.3c-1.22.59-1.58,2.32-.89,3.85A7.29,7.29,0,0,0,42,131.42c1.62.91,3.22,1.83,4.86,2.69a2.06,2.06,0,0,1,1.26,2c0,1.23.29,2.46.29,3.69a2.53,2.53,0,0,1-2.4,2.74,46.9,46.9,0,0,1-6,.29,5.15,5.15,0,0,1-3.89-2.38c-2.77-3.58-3.18-7.61-2-11.82.88-3.18,2-6.28,3.08-9.42.24-.75.44-1.51.67-2.32,1.15,0,2.31,0,3.46,0a8.58,8.58,0,0,0,6-2.15,31.34,31.34,0,0,0,3.52-3.58,2.25,2.25,0,0,1,2.3-.93,26.65,26.65,0,0,0,4.19.27,2.29,2.29,0,0,1,2.41,1.32,43.76,43.76,0,0,0,3,4.47,6.47,6.47,0,0,0,5.13,2.46,19.88,19.88,0,0,0,14-4.23c2.46-1.87,4.94-3.72,7.38-5.61a5.53,5.53,0,0,0,1.45-1.6c.91-1.66.19-3.13-1.68-3.53a6.3,6.3,0,0,0-1.51-.09q-13.89.21-27.8.44c-2.2,0-2.85,1.07-2.22,3.7l-3.69-.29a9.53,9.53,0,0,1,.45-1c1.15-1.88-.08-3.13-1.74-3.42s-3.33-.45-5-.64c-2.4-.27-4.8-.51-7.2-.78a2.49,2.49,0,0,1-.52-.18c-.14-.63-.31-1.28-.41-1.93a3.57,3.57,0,0,1,.72-3c.79-1,1.55-1.92,2.41-2.81a21.33,21.33,0,0,0,4-6.53,1.21,1.21,0,0,0-1.74.16,47,47,0,0,0-7.19,8c-.91,1.34-1.07,2.55-1.08,5.66a20.83,20.83,0,0,1-2.09,0c-2.22-.25-4.44-.59-6.68-.8a3.91,3.91,0,0,0-1.93.35c-1.31.62-1.55,1.43-.88,2.74A28.56,28.56,0,0,0,30.47,111c1.25,1.21,2.55,2.36,3.87,3.5a1.53,1.53,0,0,1,.62,1.88c-.63,1.74-1.26,3.48-1.77,5.26-.73,2.58-1.33,5.2-2,7.8a9.52,9.52,0,0,1-.8,2,22.82,22.82,0,0,1-4.42,5.23,4.9,4.9,0,0,1-5.88,1,11.43,11.43,0,0,1-5.93-5.44A14.54,14.54,0,0,1,12.85,125a16.84,16.84,0,0,1,1.73-6.77c2.48-5.65,4.82-11.37,7.15-17.08a16.51,16.51,0,0,1,2.35-4.25c1.28-1.56,2.49-3.18,3.7-4.8,1.65-2.19,4-3.58,6-5.38,1.25-1.13,2.47-2.29,3.8-3.33q4.05-3.15,8.2-6.18A6.92,6.92,0,0,1,49.56,76a7.45,7.45,0,0,1,5.32,1.71,3.7,3.7,0,0,0,3.76.65c1.61-.48,3.29-.75,4.84-1.36a16.55,16.55,0,0,0,3.28-2,17,17,0,0,1,7.5-3.14,36.46,36.46,0,0,0,7.35-2.33c2.31-.87,4.51-2,6.83-2.86,2.58-.91,5.23-1.68,7.89-2.34,4.64-1.15,9.1-2.78,13.6-4.36a101.92,101.92,0,0,1,20.67-5.18c2.28-.3,4.51-.91,6.76-1.38a2.4,2.4,0,0,0,.79-.28c2.11-1.38,4.62-1.67,6.92-2.54a3.66,3.66,0,0,1,.65-.17c4.72-.48,9.19-2,13.71-3.25a20.94,20.94,0,0,1,8.33-.63,64.2,64.2,0,0,1,8.59,1.56c2.69.71,5.29,1.82,7.91,2.8a6.28,6.28,0,0,1,1.25.85A15.73,15.73,0,0,0,195.38,55c2.41-.1,4.84.06,7.25,0a22.52,22.52,0,0,0,10.18-2.56,16.53,16.53,0,0,0,6.46-7.12,47.79,47.79,0,0,0,3.67-10.44c1.42-5.18,1.47-10.45,1.22-15.73-.12-2.59-1.24-5-2.31-7.34-.51-1.12-1.11-2.21-1.59-3.34a10.88,10.88,0,0,1-.46-1.72l.37-.25a17.37,17.37,0,0,1,5,3.9c2,2.37,3.85,4.83,5.61,7.36a19.84,19.84,0,0,1,3.62,11.19c.13,5.61-1,11.06-1.69,16.56C232.07,50,230.36,54.13,229.18,58.45Z"/><path d="M82.7,118.44a2.65,2.65,0,0,1,1.78,2.08,71.88,71.88,0,0,1,2.34,10.66A14.39,14.39,0,0,0,90.23,138c1.07,1.28,2.72,1.25,4.18,1.41a21.81,21.81,0,0,0,4.71,0,9.79,9.79,0,0,0,5.45-2.39,22.3,22.3,0,0,0,4.38-5.49c3.06-5.14,5.25-10.66,7.62-16.11a60.54,60.54,0,0,0,2.1-6c.6-1.91.1-3.79-.42-5.63-.35-1.24-.75-2.47-1.19-3.68a3.64,3.64,0,0,0-.83-1.43A20.71,20.71,0,0,0,111,94.77a16.79,16.79,0,0,1-6.4-4.53c-1.38-1.69-2.59-3.52-3.87-5.29-1.57-2.19-3.11-4.4-4.74-6.54a6.19,6.19,0,0,0-3.2-2.35c-1.76-.54-3.4-.6-4.89.7a4.33,4.33,0,0,1-1.43.87,1.59,1.59,0,0,1-1.23-.14c-.21-.13-.27-.69-.21-1,.5-2.68,1.66-3.51,4.44-3.68A9.45,9.45,0,0,1,98,76.52c2.63,3.49,5.12,7.08,7.64,10.65a14,14,0,0,0,5.8,4.73,24.24,24.24,0,0,1,6.58,4.61,4.82,4.82,0,0,1,1.3,1.73,38.73,38.73,0,0,1,2.57,10.07,15.08,15.08,0,0,1-1.36,6.36c-1.43,3.83-3,7.62-4.8,11.29a76.87,76.87,0,0,1-5.66,9.91,17.49,17.49,0,0,1-4.74,4.22,11.64,11.64,0,0,1-8,2.14,22.77,22.77,0,0,0-4.21,0,5.07,5.07,0,0,1-4.43-2,18.78,18.78,0,0,1-3.88-7.39c-.61-2.39-1.18-4.8-1.67-7.21-.35-1.76-.58-3.55-.77-5.33A7.93,7.93,0,0,1,82.7,118.44Z"/><path d="M130,231.23c-2.43,0-3.49-1.18-3.45-3.38a5.87,5.87,0,0,1,2.08-4.25,3.44,3.44,0,0,1,4.06-.35,2.7,2.7,0,0,1,1.37,3.43,11.92,11.92,0,0,1-1.55,3.29A2.53,2.53,0,0,1,130,231.23Z"/><path d="M212.35,185.78a23.44,23.44,0,0,1,1.09-3.32,2.45,2.45,0,0,1,3.27-1.24c2.72.86,4,3.16,3,5.55a4.49,4.49,0,0,1-5,2.43C213.13,188.75,212.51,187.76,212.35,185.78Z"/></svg>